<svg viewBox="0 0 155 64" xmlns="http://www.w3.org/2000/svg" fill-rule="evenodd" clip-rule="evenodd" stroke-linejoin="round" stroke-miterlimit="2"><path d="M43.064 23.511c0-.462.229-.77.533-1.077l1.524-1.54c.228-.308.686-.463 1.067-.463h13.333c.381 0 .762.155 1.067.463l1.524 1.54c.304.307.457.615.457 1.077v6.314l-19.505.066v-6.38zm21.692 15.601l-4.168 4.178a1.498 1.498 0 01-1.067.462h-13.41a1.64 1.64 0 01-1.066-.462l-1.523-1.54c-.23-.309-.458-.617-.458-1.078v-4.943H60.18v-.006h8.941V23.28c0-1.54-.61-2.849-1.676-3.927l-3.352-3.387c-.991-1.078-2.21-1.54-3.734-1.54H45.274c-1.448 0-2.667.462-3.734 1.54l-3.352 3.387c-1.066 1.078-1.6 2.388-1.6 3.927v17.623c0 1.54.534 2.849 1.6 3.926l3.352 3.388c1.067 1.078 2.286 1.54 3.734 1.54h15.162c1.447 0 2.666-.462 3.733-1.54l4.838-4.854-4.25-4.25zM79.657 49.671v-26.16c0-.462.229-.77.533-1.077l1.524-1.54c.228-.309.686-.463 1.067-.463h13.333c.38 0 .761.154 1.066.463l1.525 1.54c.303.308.456.615.456 1.077v26.16h6.553v-26.39c0-1.54-.61-2.85-1.677-3.927l-3.352-3.388c-.99-1.078-2.21-1.54-3.733-1.54H81.866c-1.447 0-2.666.462-3.733 1.54l-3.352 3.388c-1.067 1.077-1.6 2.386-1.6 3.927v26.39h6.476zM142.313 14.426h-6.477v26.16c0 .462-.228.77-.533 1.077l-1.524 1.54c-.228.309-.685.463-1.066.463H119.38c-.381 0-.762-.154-1.067-.462l-1.524-1.54c-.304-.308-.457-.616-.457-1.078v-26.16h-6.552v26.391c0 1.54.61 2.85 1.676 3.927l3.353 3.387c.99 1.078 2.208 1.54 3.732 1.54h15.087c1.446 0 2.666-.462 3.733-1.54l3.352-3.387c1.067-1.078 1.6-2.387 1.6-3.927V20.431h5.057v29.326h6.664v-35.33l-11.721-.001zM25.98 23.511c0-.462-.152-.77-.456-1.077L24 20.894a1.496 1.496 0 00-1.067-.463H9.6c-.381 0-.838.155-1.067.463l-1.524 1.54c-.304.307-.533.615-.533 1.077v17.16c0 .462.229.77.457 1.078l1.524 1.54c.305.308.762.463 1.066.463h13.41c.381 0 .762-.155 1.067-.462l1.524-1.54c.304-.309.456-.77.456-1.31V23.512zm4.953 21.318l-3.353 3.388c-1.066 1.078-2.285 1.54-3.733 1.54H8.685c-1.447 0-2.666-.462-3.733-1.54L1.6 44.829C.533 43.752 0 42.442 0 40.903V23.28c0-1.54.533-2.849 1.6-3.927l3.352-3.387c1.067-1.078 2.286-1.54 3.733-1.54h15.086c1.524 0 2.743.462 3.733 1.54l3.352 3.387c1.067 1.078 1.677 2.388 1.677 3.927V40.75c0 1.54-.534 3.003-1.6 4.08M25.98 49.825v5.228c0 .538-.152 1-.456 1.308L24 57.901a1.498 1.498 0 01-1.067.462H9.523c-.304 0-.761-.154-1.066-.461l-2.285-2.294-4.213 4.213 2.993 3.008c1.067 1.077 2.286 1.54 3.733 1.54h15.162c1.448 0 2.667-.463 3.733-1.54l3.353-3.388c1.066-1.078 1.6-2.54 1.6-4.081v-5.535H25.98z" fill="#37f49e" fill-rule="nonzero"/></svg>