<svg viewBox="0 0 20 16" fill="currentColor" xmlns="http://www.w3.org/2000/svg">
<path fill-rule="evenodd" clip-rule="evenodd" d="M2 0H8L10 2H18C19.1 2 20 2.9 20 4V14C20 15.1 19.1 16 18 16H2C0.9 16 0 15.1 0 14V2C0 0.9 0.9 0 2 0ZM8.00419 9.33752C7.89479 9.44692 7.83333 9.59529 7.83333 9.75V12.6667C7.83333 12.8214 7.89479 12.9697 8.00419 13.0791C8.11358 13.1885 8.26196 13.25 8.41667 13.25H9.58333C9.73804 13.25 9.88642 13.1885 9.99581 13.0791C10.1052 12.9697 10.1667 12.8214 10.1667 12.6667V9.75C10.1667 9.59529 10.1052 9.44692 9.99581 9.33752C9.88642 9.22812 9.73804 9.16667 9.58333 9.16667H8.41667C8.26196 9.16667 8.11358 9.22812 8.00419 9.33752ZM11.5042 7.00419C11.3948 7.11358 11.3333 7.26196 11.3333 7.41667V12.6667C11.3333 12.8214 11.3948 12.9697 11.5042 13.0791C11.6136 13.1885 11.762 13.25 11.9167 13.25H13.0833C13.238 13.25 13.3864 13.1885 13.4958 13.0791C13.6052 12.9697 13.6667 12.8214 13.6667 12.6667V7.41667C13.6667 7.26196 13.6052 7.11358 13.4958 7.00419C13.3864 6.89479 13.238 6.83333 13.0833 6.83333H11.9167C11.762 6.83333 11.6136 6.89479 11.5042 7.00419ZM15.0042 5.25419C14.8948 5.36358 14.8333 5.51196 14.8333 5.66667V12.6667C14.8333 12.8214 14.8948 12.9697 15.0042 13.0791C15.1136 13.1885 15.262 13.25 15.4167 13.25H16.5833C16.738 13.25 16.8864 13.1885 16.9958 13.0791C17.1052 12.9697 17.1667 12.8214 17.1667 12.6667V5.66667C17.1667 5.51196 17.1052 5.36358 16.9958 5.25419C16.8864 5.14479 16.738 5.08333 16.5833 5.08333H15.4167C15.262 5.08333 15.1136 5.14479 15.0042 5.25419Z" />
</svg>
