<svg viewBox="0 0 24 20" fill="none" xmlns="http://www.w3.org/2000/svg">
  <g clip-path="url(#clip0_1903_1785)">
    <path fill-rule="evenodd" clip-rule="evenodd"
      d="M9.6 0.400024H2.4C1.08 0.400024 0 1.48002 0 2.80002V17.2C0 18.52 1.08 19.6 2.4 19.6H21.6C22.92 19.6 24 18.52 24 17.2V5.20002C24 3.88002 22.92 2.80002 21.6 2.80002H12L9.6 0.400024Z"
      fill="#0093D8" />
    <path
      d="M16.4499 8.29998C16.4499 8.81715 16.2445 9.31314 15.8788 9.67883C15.5131 10.0445 15.0171 10.25 14.4999 10.25C13.9827 10.25 13.4867 10.0445 13.121 9.67883C12.7553 9.31314 12.5499 8.81715 12.5499 8.29998C12.5499 7.7828 12.7553 7.28681 13.121 6.92112C13.4867 6.55542 13.9827 6.34998 14.4999 6.34998C15.0171 6.34998 15.5131 6.55542 15.8788 6.92112C16.2445 7.28681 16.4499 7.7828 16.4499 8.29998ZM19.6999 9.59998C19.6999 9.94476 19.5629 10.2754 19.3191 10.5192C19.0753 10.763 18.7447 10.9 18.3999 10.9C18.0551 10.9 17.7245 10.763 17.4807 10.5192C17.2369 10.2754 17.0999 9.94476 17.0999 9.59998C17.0999 9.25519 17.2369 8.92453 17.4807 8.68074C17.7245 8.43694 18.0551 8.29998 18.3999 8.29998C18.7447 8.29998 19.0753 8.43694 19.3191 8.68074C19.5629 8.92453 19.6999 9.25519 19.6999 9.59998ZM17.0999 14.15C17.0999 13.4604 16.826 12.7991 16.3384 12.3115C15.8508 11.8239 15.1895 11.55 14.4999 11.55C13.8103 11.55 13.149 11.8239 12.6614 12.3115C12.1738 12.7991 11.8999 13.4604 11.8999 14.15V16.1H17.0999V14.15ZM11.8999 9.59998C11.8999 9.94476 11.7629 10.2754 11.5191 10.5192C11.2753 10.763 10.9447 10.9 10.5999 10.9C10.2551 10.9 9.92446 10.763 9.68066 10.5192C9.43687 10.2754 9.2999 9.94476 9.2999 9.59998C9.2999 9.25519 9.43687 8.92453 9.68066 8.68074C9.92446 8.43694 10.2551 8.29998 10.5999 8.29998C10.9447 8.29998 11.2753 8.43694 11.5191 8.68074C11.7629 8.92453 11.8999 9.25519 11.8999 9.59998ZM18.3999 16.1V14.15C18.4008 13.4891 18.233 12.8389 17.9124 12.2611C18.2006 12.1873 18.5018 12.1804 18.7931 12.2407C19.0843 12.3011 19.358 12.4272 19.5931 12.6094C19.8282 12.7916 20.0186 13.0251 20.1498 13.2921C20.2809 13.5591 20.3494 13.8525 20.3499 14.15V16.1H18.3999ZM11.0874 12.2611C10.7668 12.839 10.599 13.4891 10.5999 14.15V16.1H8.6499V14.15C8.64978 13.8523 8.7178 13.5585 8.84877 13.2912C8.97973 13.0239 9.17016 12.7901 9.40545 12.6078C9.64075 12.4255 9.91466 12.2994 10.2062 12.2393C10.4977 12.1792 10.7992 12.1867 11.0874 12.2611Z"
      fill="#D5F2FF" />
  </g>
  <defs>
    <clipPath id="clip0_1903_1785">
      <rect width="24" height="19.2" fill="white" transform="translate(0 0.400024)" />
    </clipPath>
  </defs>
</svg>