<svg width="51" height="50" viewBox="0 0 51 50" fill="none" xmlns="http://www.w3.org/2000/svg">
<path fill-rule="evenodd" clip-rule="evenodd" d="M10.5 10C10.5 8.67392 11.0268 7.40215 11.9645 6.46447C12.9021 5.52678 14.1739 5 15.5 5H26.965C28.291 5.00028 29.5625 5.52725 30.5 6.465L39.035 15C39.9727 15.9375 40.4997 17.209 40.5 18.535V40C40.5 41.3261 39.9732 42.5979 39.0355 43.5355C38.0979 44.4732 36.8261 45 35.5 45H15.5C14.1739 45 12.9021 44.4732 11.9645 43.5355C11.0268 42.5979 10.5 41.3261 10.5 40V10Z" fill="#0093D8"/>
<path d="M21.2168 35.5H19.0137C18.998 35.3177 18.9564 35.1523 18.8887 35.0039C18.8236 34.8555 18.7324 34.7279 18.6152 34.6211C18.5007 34.5117 18.3613 34.4284 18.1973 34.3711C18.0332 34.3112 17.847 34.2812 17.6387 34.2812C17.2741 34.2812 16.9655 34.3698 16.7129 34.5469C16.4629 34.724 16.2728 34.9779 16.1426 35.3086C16.015 35.6393 15.9512 36.0365 15.9512 36.5C15.9512 36.9896 16.0163 37.3997 16.1465 37.7305C16.2793 38.0586 16.4707 38.306 16.7207 38.4727C16.9707 38.6367 17.2715 38.7187 17.623 38.7187C17.8236 38.7187 18.0033 38.694 18.1621 38.6445C18.321 38.5924 18.459 38.5182 18.5762 38.4219C18.6934 38.3255 18.7884 38.2096 18.8613 38.0742C18.9368 37.9362 18.9876 37.7812 19.0137 37.6094L21.2168 37.625C21.1908 37.9635 21.0957 38.3086 20.9316 38.6602C20.7676 39.0091 20.5345 39.332 20.2324 39.6289C19.9329 39.9232 19.5618 40.1602 19.1191 40.3398C18.6764 40.5195 18.1621 40.6094 17.5762 40.6094C16.8418 40.6094 16.1829 40.4518 15.5996 40.1367C15.0189 39.8216 14.5592 39.3581 14.2207 38.7461C13.8848 38.1341 13.7168 37.3854 13.7168 36.5C13.7168 35.6094 13.8887 34.8594 14.2324 34.25C14.5762 33.638 15.0397 33.1758 15.623 32.8633C16.2064 32.5482 16.8574 32.3906 17.5762 32.3906C18.0814 32.3906 18.5462 32.4596 18.9707 32.5977C19.3952 32.7357 19.7676 32.9375 20.0879 33.2031C20.4082 33.4661 20.666 33.7904 20.8613 34.1758C21.0566 34.5612 21.1751 35.0026 21.2168 35.5ZM26.5146 35C26.4938 34.7396 26.3962 34.5365 26.2217 34.3906C26.0498 34.2448 25.7881 34.1719 25.4365 34.1719C25.2126 34.1719 25.029 34.1992 24.8857 34.2539C24.7451 34.306 24.641 34.3776 24.5732 34.4687C24.5055 34.5599 24.4704 34.6641 24.4678 34.7812C24.4626 34.8776 24.4795 34.9648 24.5186 35.043C24.5602 35.1185 24.6253 35.1875 24.7139 35.25C24.8024 35.3099 24.9157 35.3646 25.0537 35.4141C25.1917 35.4635 25.3558 35.5078 25.5459 35.5469L26.2021 35.6875C26.6449 35.7812 27.0238 35.9049 27.3389 36.0586C27.654 36.2122 27.9118 36.3932 28.1123 36.6016C28.3128 36.8073 28.46 37.0391 28.5537 37.2969C28.6501 37.5547 28.6995 37.8359 28.7021 38.1406C28.6995 38.6667 28.568 39.112 28.3076 39.4766C28.0472 39.8411 27.6748 40.1185 27.1904 40.3086C26.7087 40.4987 26.1292 40.5938 25.4521 40.5938C24.7568 40.5938 24.1501 40.4909 23.6318 40.2852C23.1162 40.0794 22.7152 39.763 22.4287 39.3359C22.1449 38.9062 22.0016 38.3568 21.999 37.6875H24.0615C24.0745 37.9323 24.1357 38.138 24.2451 38.3047C24.3545 38.4714 24.5081 38.5977 24.7061 38.6836C24.9066 38.7695 25.1449 38.8125 25.4209 38.8125C25.6527 38.8125 25.8467 38.7839 26.0029 38.7266C26.1592 38.6693 26.2777 38.5898 26.3584 38.4883C26.4391 38.3867 26.4808 38.2708 26.4834 38.1406C26.4808 38.0182 26.4404 37.9115 26.3623 37.8203C26.2868 37.7266 26.1618 37.6432 25.9873 37.5703C25.8128 37.4948 25.5771 37.4245 25.2803 37.3594L24.4834 37.1875C23.7751 37.0339 23.2165 36.7773 22.8076 36.418C22.4014 36.056 22.1995 35.5625 22.2021 34.9375C22.1995 34.4297 22.335 33.9857 22.6084 33.6055C22.8844 33.2227 23.266 32.9245 23.7529 32.7109C24.2425 32.4974 24.8037 32.3906 25.4365 32.3906C26.0824 32.3906 26.641 32.4987 27.1123 32.7148C27.5837 32.931 27.9469 33.2357 28.2021 33.6289C28.46 34.0195 28.5902 34.4766 28.5928 35H26.5146ZM31.7158 32.5L33.3564 38.1406H33.4189L35.0596 32.5H37.5127L34.8721 40.5H31.9033L29.2627 32.5H31.7158Z" fill="white"/>
</svg>
