<svg width="24" height="25" viewBox="0 0 24 25" fill="none" xmlns="http://www.w3.org/2000/svg">
<path fill-rule="evenodd" clip-rule="evenodd" d="M4.7998 5.2999C4.7998 4.66338 5.05266 4.05293 5.50275 3.60285C5.95284 3.15276 6.56329 2.8999 7.1998 2.8999H12.703C13.3395 2.90004 13.9498 3.15298 14.3998 3.6031L18.4966 7.6999C18.9467 8.14989 19.1997 8.76024 19.1998 9.3967V19.6999C19.1998 20.3364 18.9469 20.9469 18.4969 21.397C18.0468 21.847 17.4363 22.0999 16.7998 22.0999H7.1998C6.56329 22.0999 5.95284 21.847 5.50275 21.397C5.05266 20.9469 4.7998 20.3364 4.7998 19.6999V5.2999Z" fill="#6B7280"/>
<path d="M7.67627 18.7V15.3545H9.1203C9.3686 15.3545 9.58586 15.4035 9.77208 15.5015C9.9583 15.5995 10.1031 15.7373 10.2066 15.9148C10.3101 16.0923 10.3618 16.2998 10.3618 16.5372C10.3618 16.7768 10.3084 16.9842 10.2017 17.1595C10.0961 17.3349 9.94741 17.4699 9.75574 17.5647C9.56517 17.6594 9.34246 17.7068 9.08763 17.7068H8.22513V17.0011H8.90468C9.0114 17.0011 9.10234 16.9826 9.17748 16.9455C9.25371 16.9074 9.31197 16.8535 9.35226 16.7838C9.39365 16.7141 9.41434 16.6319 9.41434 16.5372C9.41434 16.4413 9.39365 16.3597 9.35226 16.2921C9.31197 16.2235 9.25371 16.1713 9.17748 16.1353C9.10234 16.0983 9.0114 16.0798 8.90468 16.0798H8.58451V18.7H7.67627ZM11.9822 18.7H10.695V15.3545H11.9692C12.3133 15.3545 12.6106 15.4215 12.8611 15.5554C13.1126 15.6883 13.3065 15.8799 13.4426 16.1304C13.5798 16.3798 13.6484 16.6787 13.6484 17.0272C13.6484 17.3757 13.5804 17.6752 13.4442 17.9257C13.3081 18.175 13.1154 18.3667 12.866 18.5007C12.6166 18.6335 12.322 18.7 11.9822 18.7ZM11.6033 17.9289H11.9496C12.1151 17.9289 12.2561 17.9022 12.3726 17.8489C12.4903 17.7955 12.5796 17.7035 12.6405 17.5728C12.7026 17.4421 12.7337 17.2603 12.7337 17.0272C12.7337 16.7942 12.7021 16.6123 12.6389 16.4816C12.5768 16.3509 12.4854 16.2589 12.3645 16.2056C12.2447 16.1522 12.0977 16.1255 11.9234 16.1255H11.6033V17.9289ZM14.0687 18.7V15.3545H16.4209V16.0863H14.9769V16.6613H16.2772V17.3931H14.9769V18.7H14.0687Z" fill="white"/>
</svg>
