<svg width="24" height="24" viewBox="0 0 24 24" fill="none" xmlns="http://www.w3.org/2000/svg">
<path fill-rule="evenodd" clip-rule="evenodd" d="M7.2 2.3999C6.56348 2.3999 5.95303 2.65276 5.50295 3.10285C5.05286 3.55293 4.8 4.16338 4.8 4.7999V19.1999C4.8 19.8364 5.05286 20.4469 5.50295 20.897C5.95303 21.347 6.56348 21.5999 7.2 21.5999H16.8C17.4365 21.5999 18.047 21.347 18.4971 20.897C18.9471 20.4469 19.2 19.8364 19.2 19.1999V8.8967C19.1999 8.26024 18.9469 7.64989 18.4968 7.1999L14.4 3.1031C13.95 2.65298 13.3397 2.40004 12.7032 2.3999H7.2Z" fill="black"/>
<path d="M11.1221 17.6483C10.897 17.4232 10.7706 17.118 10.7706 16.7998V12.4966L9.21901 14.0482C8.99269 14.2667 8.68956 14.3877 8.37493 14.385C8.06029 14.3822 7.75932 14.256 7.53683 14.0335C7.31434 13.811 7.18814 13.5101 7.1854 13.1954C7.18267 12.8808 7.30362 12.5777 7.52221 12.3514L11.1222 8.75136C11.3472 8.52639 11.6524 8.40001 11.9706 8.40001C12.2888 8.40001 12.594 8.52639 12.819 8.75136L16.419 12.3514C16.5336 12.4621 16.625 12.5945 16.6879 12.7409C16.7508 12.8873 16.7839 13.0447 16.7853 13.2041C16.7867 13.3634 16.7563 13.5214 16.696 13.6689C16.6357 13.8164 16.5466 13.9504 16.4339 14.063C16.3212 14.1757 16.1872 14.2648 16.0398 14.3251C15.8923 14.3855 15.7343 14.4158 15.5749 14.4145C15.4156 14.4131 15.2581 14.38 15.1117 14.3171C14.9653 14.2542 14.8329 14.1628 14.7222 14.0482L13.1706 12.4966V16.7998C13.1706 17.118 13.0442 17.4232 12.8191 17.6483C12.5941 17.8733 12.2889 17.9998 11.9706 17.9998C11.6523 17.9998 11.3471 17.8733 11.1221 17.6483Z" fill="white"/>
</svg>
