<svg width="24" height="20" viewBox="0 0 24 20" fill="none" xmlns="http://www.w3.org/2000/svg">
<g clip-path="url(#clip0_1916_1798)">
<path fill-rule="evenodd" clip-rule="evenodd" d="M9.6 0.400024H2.4C1.08 0.400024 0 1.48002 0 2.80002V17.2C0 18.52 1.08 19.6 2.4 19.6H21.6C22.92 19.6 24 18.52 24 17.2V5.20002C24 3.88002 22.92 2.80002 21.6 2.80002H12L9.6 0.400024Z" fill="#0093D8"/>
<g clip-path="url(#clip1_1916_1798)">
<path d="M15.6 12.265C15.5097 12.1685 15.3848 12.1117 15.2527 12.107C15.1205 12.1023 14.9919 12.1501 14.895 12.24C14.3038 12.7607 13.8294 13.4005 13.5028 14.1175C13.1763 14.8344 13.0049 15.6122 13 16.4C13 16.5326 13.0527 16.6598 13.1464 16.7536C13.2402 16.8473 13.3674 16.9 13.5 16.9C13.6326 16.9 13.7598 16.8473 13.8536 16.7536C13.9473 16.6598 14 16.5326 14 16.4C14.0034 15.7492 14.1457 15.1065 14.4173 14.515C14.6889 13.9235 15.0836 13.3968 15.575 12.97C15.6715 12.8797 15.7283 12.7548 15.733 12.6227C15.7377 12.4906 15.6899 12.362 15.6 12.265ZM20.685 14.585C20.4987 14.0461 20.2288 13.5399 19.885 13.085C19.3706 12.4186 18.7426 11.8482 18.03 11.4C19.15 10.685 21 9.10002 21 6.40002C21 6.26742 20.9473 6.14024 20.8536 6.04647C20.7598 5.9527 20.6326 5.90002 20.5 5.90002C20.3674 5.90002 20.2402 5.9527 20.1464 6.04647C20.0527 6.14024 20 6.26742 20 6.40002C20 9.10002 17.705 10.485 17 10.845C16.5146 10.5863 16.0629 10.269 15.655 9.90002H17C17.1326 9.90002 17.2598 9.84735 17.3536 9.75358C17.4473 9.65981 17.5 9.53263 17.5 9.40002C17.5 9.26742 17.4473 9.14024 17.3536 9.04647C17.2598 8.9527 17.1326 8.90002 17 8.90002H14.775C14.5691 8.5878 14.4012 8.25208 14.275 7.90002H18.5C18.6326 7.90002 18.7598 7.84735 18.8536 7.75358C18.9473 7.65981 19 7.53263 19 7.40002C19 7.26742 18.9473 7.14024 18.8536 7.04647C18.7598 6.9527 18.6326 6.90002 18.5 6.90002H14.03C14.0097 6.73413 13.9997 6.56715 14 6.40002C14 6.26742 13.9473 6.14024 13.8536 6.04647C13.7598 5.9527 13.6326 5.90002 13.5 5.90002C13.3674 5.90002 13.2402 5.9527 13.1464 6.04647C13.0527 6.14024 13 6.26742 13 6.40002C13 10.185 16.65 11.795 16.805 11.86C17.3675 12.1303 17.8879 12.4806 18.35 12.9H17C16.8674 12.9 16.7402 12.9527 16.6464 13.0465C16.5527 13.1402 16.5 13.2674 16.5 13.4C16.5 13.5326 16.5527 13.6598 16.6464 13.7536C16.7402 13.8473 16.8674 13.9 17 13.9H19.215C19.4223 14.2115 19.5902 14.5473 19.715 14.9H15.5C15.3674 14.9 15.2402 14.9527 15.1464 15.0465C15.0527 15.1402 15 15.2674 15 15.4C15 15.5326 15.0527 15.6598 15.1464 15.7536C15.2402 15.8473 15.3674 15.9 15.5 15.9H19.97C19.9901 16.0659 20.0001 16.2329 20 16.4C20 16.5326 20.0527 16.6598 20.1464 16.7536C20.2402 16.8473 20.3674 16.9 20.5 16.9C20.6326 16.9 20.7598 16.8473 20.8536 16.7536C20.9473 16.6598 21 16.5326 21 16.4C21.0018 16.0322 20.9649 15.6652 20.89 15.305C20.8413 15.0599 20.7727 14.8191 20.685 14.585Z" fill="#D5F2FF"/>
</g>
</g>
<defs>
<clipPath id="clip0_1916_1798">
<rect width="24" height="19.2" fill="white" transform="translate(0 0.400024)"/>
</clipPath>
<clipPath id="clip1_1916_1798">
<rect width="12" height="12" fill="white" transform="translate(11 5.40002)"/>
</clipPath>
</defs>
</svg>
