<svg width="24" height="20" viewBox="0 0 24 20" fill="none" xmlns="http://www.w3.org/2000/svg">
<path fill-rule="evenodd" clip-rule="evenodd" d="M9.6 0H2.4C1.08 0 0 1.08 0 2.4V16.8C0 18.12 1.08 19.2 2.4 19.2H21.6C22.92 19.2 24 18.12 24 16.8V4.8C24 3.48 22.92 2.4 21.6 2.4H12L9.6 0Z" fill="#6B7280"/>
<path d="M9.4 11.7C9.4 11.5143 9.47375 11.3363 9.60503 11.205C9.7363 11.0737 9.91435 11 10.1 11H11.5C11.6857 11 11.8637 11.0737 11.995 11.205C12.1263 11.3363 12.2 11.5143 12.2 11.7V15.2C12.2 15.3857 12.1263 15.5637 11.995 15.695C11.8637 15.8262 11.6857 15.9 11.5 15.9H10.1C9.91435 15.9 9.7363 15.8262 9.60503 15.695C9.47375 15.5637 9.4 15.3857 9.4 15.2V11.7ZM13.6 8.9C13.6 8.71435 13.6738 8.5363 13.805 8.40503C13.9363 8.27375 14.1143 8.2 14.3 8.2H15.7C15.8857 8.2 16.0637 8.27375 16.195 8.40503C16.3263 8.5363 16.4 8.71435 16.4 8.9V15.2C16.4 15.3857 16.3263 15.5637 16.195 15.695C16.0637 15.8262 15.8857 15.9 15.7 15.9H14.3C14.1143 15.9 13.9363 15.8262 13.805 15.695C13.6738 15.5637 13.6 15.3857 13.6 15.2V8.9ZM17.8 6.8C17.8 6.61435 17.8738 6.4363 18.005 6.30503C18.1363 6.17375 18.3143 6.1 18.5 6.1H19.9C20.0857 6.1 20.2637 6.17375 20.395 6.30503C20.5263 6.4363 20.6 6.61435 20.6 6.8V15.2C20.6 15.3857 20.5263 15.5637 20.395 15.695C20.2637 15.8262 20.0857 15.9 19.9 15.9H18.5C18.3143 15.9 18.1363 15.8262 18.005 15.695C17.8738 15.5637 17.8 15.3857 17.8 15.2V6.8Z" fill="white"/>
</svg>
