<svg width="24" height="20" viewBox="0 0 24 20" fill="none" xmlns="http://www.w3.org/2000/svg">
<g clip-path="url(#clip0_1916_1817)">
<path fill-rule="evenodd" clip-rule="evenodd" d="M9.6 0.400024H2.4C1.08 0.400024 0 1.48002 0 2.80002V17.2C0 18.52 1.08 19.6 2.4 19.6H21.6C22.92 19.6 24 18.52 24 17.2V5.20002C24 3.88002 22.92 2.80002 21.6 2.80002H12L9.6 0.400024Z" fill="#0093D8"/>
<path fill-rule="evenodd" clip-rule="evenodd" d="M11.0618 7.76177C11.5494 7.27434 12.2106 7.00052 12.9 7.00052C13.5894 7.00052 14.2506 7.27434 14.7382 7.76177L15.5 8.52292L16.2618 7.76177C16.5016 7.51344 16.7885 7.31537 17.1057 7.1791C17.4229 7.04284 17.7641 6.97112 18.1093 6.96812C18.4546 6.96512 18.7969 7.0309 19.1165 7.16163C19.436 7.29236 19.7263 7.48542 19.9704 7.72954C20.2145 7.97366 20.4076 8.26396 20.5383 8.58349C20.669 8.90302 20.7348 9.24538 20.7318 9.59061C20.7288 9.93584 20.6571 10.277 20.5208 10.5942C20.3846 10.9114 20.1865 11.1983 19.9382 11.4382L15.5 15.877L11.0618 11.4382C10.5744 10.9506 10.3005 10.2894 10.3005 9.59997C10.3005 8.91054 10.5744 8.24934 11.0618 7.76177Z" fill="#D5F2FF"/>
</g>
<defs>
<clipPath id="clip0_1916_1817">
<rect width="24" height="19.2" fill="white" transform="translate(0 0.400024)"/>
</clipPath>
</defs>
</svg>
