<svg width="16" height="21" viewBox="0 0 16 21" fill="none" xmlns="http://www.w3.org/2000/svg">
<path fill-rule="evenodd" clip-rule="evenodd" d="M0.799805 3.29998C0.799805 2.66346 1.05266 2.05301 1.50275 1.60292C1.95284 1.15283 2.56329 0.899979 3.1998 0.899979H8.70301C9.33947 0.900115 9.94982 1.15306 10.3998 1.60318L14.4966 5.69998C14.9467 6.14996 15.1997 6.76031 15.1998 7.39678V17.7C15.1998 18.3365 14.9469 18.9469 14.4969 19.397C14.0468 19.8471 13.4363 20.1 12.7998 20.1H3.1998C2.56329 20.1 1.95284 19.8471 1.50275 19.397C1.05266 18.9469 0.799805 18.3365 0.799805 17.7V3.29998Z" fill="#E02424"/>
<path d="M3.67627 18V14.6545H5.1203C5.3686 14.6545 5.58586 14.7036 5.77208 14.8016C5.9583 14.8996 6.10314 15.0373 6.2066 15.2148C6.31005 15.3924 6.36178 15.5998 6.36178 15.8372C6.36178 16.0768 6.30842 16.2843 6.2017 16.4596C6.09606 16.6349 5.94741 16.77 5.75574 16.8647C5.56517 16.9594 5.34246 17.0068 5.08763 17.0068H4.22513V16.3011H4.90468C5.0114 16.3011 5.10234 16.2826 5.17748 16.2456C5.25371 16.2075 5.31197 16.1536 5.35226 16.0839C5.39365 16.0142 5.41434 15.932 5.41434 15.8372C5.41434 15.7414 5.39365 15.6597 5.35226 15.5922C5.31197 15.5236 5.25371 15.4713 5.17748 15.4354C5.10234 15.3983 5.0114 15.3798 4.90468 15.3798H4.58451V18H3.67627ZM7.98224 18H6.69502V14.6545H7.96917C8.3133 14.6545 8.6106 14.7215 8.86107 14.8555C9.11263 14.9883 9.30648 15.18 9.44261 15.4305C9.57982 15.6799 9.64843 15.9788 9.64843 16.3273C9.64843 16.6758 9.58037 16.9752 9.44424 17.2257C9.30811 17.4751 9.11536 17.6668 8.86597 17.8007C8.61659 17.9336 8.32201 18 7.98224 18ZM7.60326 17.229H7.94957C8.1151 17.229 8.25612 17.2023 8.37265 17.1489C8.49026 17.0956 8.57956 17.0036 8.64055 16.8729C8.70262 16.7422 8.73366 16.5603 8.73366 16.3273C8.73366 16.0942 8.70207 15.9124 8.63891 15.7817C8.57684 15.651 8.48536 15.559 8.36448 15.5056C8.24469 15.4522 8.09767 15.4256 7.92343 15.4256H7.60326V17.229ZM10.0687 18V14.6545H12.4209V15.3864H10.9769V15.9614H12.2772V16.6932H10.9769V18H10.0687Z" fill="white"/>
</svg>
