<svg width="32" height="32" viewBox="0 0 32 32" fill="none" xmlns="http://www.w3.org/2000/svg">
<g clip-path="url(#clip0_2_593)">
<path d="M2.66666 8C2.66666 5.05448 5.05448 2.66667 8 2.66667H24C26.9455 2.66667 29.3333 5.05448 29.3333 8V24C29.3333 26.9455 26.9455 29.3333 24 29.3333H8C5.05448 29.3333 2.66666 26.9455 2.66666 24V8Z" fill="white"/>
<path fill-rule="evenodd" clip-rule="evenodd" d="M24 4H8C5.79086 4 4 5.79086 4 8V24C4 26.2091 5.79086 28 8 28H24C26.2091 28 28 26.2091 28 24V8C28 5.79086 26.2091 4 24 4ZM8 2.66667C5.05448 2.66667 2.66666 5.05448 2.66666 8V24C2.66666 26.9455 5.05448 29.3333 8 29.3333H24C26.9455 29.3333 29.3333 26.9455 29.3333 24V8C29.3333 5.05448 26.9455 2.66667 24 2.66667H8Z" fill="black"/>
<path d="M12.9832 6.27148C12.9429 6.10506 13.1043 6.07853 13.1911 6H13.2413L13.268 6.03381C13.268 6.07073 13.2778 6.1009 13.3226 6.0983C13.466 6.08869 13.61 6.10528 13.747 6.14718C13.7516 6.16139 13.7599 6.17425 13.7711 6.18453C13.7824 6.19481 13.7962 6.20219 13.8113 6.20595C13.8113 6.21115 13.8113 6.21635 13.8113 6.22207L13.448 6.24756C13.3155 6.24236 13.2189 6.3573 13.0847 6.34637H12.9816L12.9832 6.27148Z" fill="#B32F38"/>
<path d="M23.2885 25.3231C23.2898 25.3267 23.2901 25.3306 23.2894 25.3344C23.2888 25.3383 23.2871 25.3418 23.2846 25.3449H19.7557V25.3205L23.2885 25.3231Z" fill="#585959"/>
<path d="M15.1135 25.3215C15.1135 25.3293 15.1135 25.3371 15.1135 25.3449H11.8676C11.8676 25.3366 11.8676 25.3288 11.8676 25.3205L15.1135 25.3215Z" fill="#585959"/>
<path d="M23.7778 15.3511H23.7391C23.7541 15.0942 23.7541 14.8367 23.7391 14.5798H23.7773L23.7778 15.3511Z" fill="#929191"/>
<path d="M13.2695 6.03381L13.2428 6H13.7098L13.7147 6.03693L13.6716 6.04577L13.6328 6.03016C13.5119 6.02096 13.3903 6.02218 13.2695 6.03381V6.03381Z" fill="#D2898E"/>
<path d="M23.7396 14.5819C23.7546 14.8388 23.7546 15.0963 23.7396 15.3532L23.733 15.4005C23.703 15.4478 23.7139 15.5019 23.7063 15.5529C23.7021 15.5583 23.6991 15.5645 23.6976 15.5711C23.6719 15.5836 23.6708 15.6033 23.6807 15.6262C23.6845 15.881 23.5923 16.114 23.511 16.3512C23.4334 16.5661 23.3357 16.7739 23.2191 16.9722C22.858 17.6008 22.3091 18.1129 21.6421 18.4435C21.4556 18.5318 21.2625 18.6068 21.0644 18.6676C20.8145 18.7503 20.5592 18.8164 20.3066 18.8897C20.1619 18.9384 20.0139 18.9781 19.8637 19.0083C19.8026 19.0182 19.7895 19.0369 19.8217 19.0889C19.9891 19.3599 20.1233 19.6475 20.2794 19.9247C20.5472 20.4021 20.8009 20.8868 21.0895 21.3539C21.2711 21.6477 21.4249 21.9566 21.6071 22.25C21.7528 22.4855 21.8865 22.7274 22.0343 22.9614C22.1396 23.1278 22.2334 23.3026 22.336 23.4716C22.4887 23.7239 22.6294 23.9823 22.7909 24.2309C22.9458 24.4691 23.0686 24.7266 23.2061 24.9757C23.2459 25.0485 23.2879 25.1198 23.3277 25.1926C23.3561 25.2446 23.367 25.2966 23.2912 25.3231H19.7584C19.7628 25.307 19.7551 25.2992 19.7388 25.2966C19.6253 25.0594 19.5255 24.8166 19.424 24.5747C19.3182 24.323 19.1861 24.0806 19.088 23.8263C19.0198 23.6505 18.9456 23.4758 18.8659 23.3062C18.7525 23.0649 18.6548 22.8174 18.5386 22.5781C18.4224 22.3389 18.2882 22.122 18.1955 21.8786C18.1279 21.7291 18.0516 21.5832 17.9669 21.4417C17.8545 21.2275 17.7487 21.0085 17.6303 20.7984C17.512 20.5883 17.4165 20.3579 17.2921 20.1452C17.1737 19.9444 17.081 19.7291 16.9735 19.5211C16.8661 19.3131 16.7493 19.105 16.6386 18.8928C16.5278 18.6806 16.4204 18.4716 16.3113 18.2604C16.2365 18.1158 16.1662 17.9687 16.0849 17.8272C16.0303 17.7372 16.0483 17.6821 16.1558 17.6769C16.3675 17.6691 16.5795 17.6759 16.7902 17.6972C17.1551 17.7299 17.5224 17.7299 17.8873 17.6972C17.9385 17.693 17.9904 17.6852 18.0422 17.6836C18.315 17.6738 18.5686 17.5895 18.8283 17.5162C19.1152 17.4345 19.386 17.3081 19.6296 17.1422C19.854 16.9833 20.0439 16.7845 20.1888 16.5566C20.3123 16.3703 20.4026 16.1657 20.4561 15.9513C20.5149 15.7399 20.5353 15.5206 20.5167 15.3027C20.491 15.0458 20.4539 14.7899 20.3088 14.5626C20.1673 14.3512 19.9753 14.1746 19.7486 14.0472C19.5396 13.9219 19.3023 13.8642 19.0716 13.7955C18.8965 13.7435 18.7028 13.7763 18.5195 13.7404C18.1273 13.6639 17.7291 13.7014 17.333 13.691C17.2923 13.6868 17.2512 13.6956 17.2162 13.7159C17.1812 13.7362 17.1542 13.7669 17.1394 13.8033C17.0139 14.0363 16.8742 14.2621 16.721 14.4794C16.4307 14.9241 16.1083 15.3485 15.7936 15.777C15.6954 15.9112 15.5874 16.0371 15.487 16.1723C15.4588 16.2073 15.4438 16.2504 15.4444 16.2945C15.4401 16.6159 15.4564 16.9389 15.4254 17.2582C15.3163 18.3707 15.3648 19.4862 15.3272 20.5997C15.3173 20.8821 15.3244 21.1666 15.2982 21.4485C15.2197 22.2988 15.2737 23.1518 15.2366 24.0026C15.2224 24.3443 15.2115 24.685 15.2039 25.0267C15.2039 25.1239 15.1913 25.2373 15.1144 25.3226H11.868C11.8554 25.3189 11.8437 25.3127 11.8338 25.3043C11.824 25.2959 11.8162 25.2855 11.811 25.2739C11.8058 25.2623 11.8033 25.2497 11.8037 25.2371C11.8042 25.2245 11.8075 25.2121 11.8135 25.2009C11.8768 25.0038 11.8353 24.7983 11.868 24.6002C11.9515 24.1124 11.9275 23.6152 12.0055 23.1289C12.0481 22.8657 12.0404 22.6041 12.0519 22.3425C12.0661 22.0185 12.1419 21.7007 12.137 21.3757C12.1275 21.1616 12.1339 20.9471 12.1561 20.7339C12.1828 20.5311 12.1506 20.3231 12.2232 20.1249C12.2313 20.0887 12.2337 20.0515 12.2303 20.0146C12.2352 19.6111 12.2183 19.2059 12.251 18.8039C12.2755 18.4955 12.2575 18.1798 12.3536 17.8776H12.3606V17.8714C12.671 17.7861 12.9924 17.7461 13.3017 17.6556C13.8428 17.4969 14.3381 17.2535 14.7265 16.8593C15.1359 16.4468 15.5126 16.006 15.8536 15.5404C16.2556 14.9901 16.6588 14.4409 17.0019 13.8543C17.1776 13.5547 17.2599 13.212 17.4721 12.9291L17.5463 12.8713C17.656 12.7927 17.7706 12.7205 17.8895 12.655C18.2424 12.4709 18.6232 12.3544 19.0023 12.2342C19.2119 12.1592 19.4259 12.096 19.6433 12.0449C19.8659 12.0007 20.0857 11.9461 20.3083 11.9003C20.4752 11.866 20.5647 11.788 20.5499 11.6195C20.5519 11.6197 20.5538 11.6196 20.5557 11.619C20.5575 11.6184 20.5592 11.6175 20.5607 11.6163C20.5621 11.6151 20.5633 11.6136 20.564 11.6119C20.5648 11.6102 20.5652 11.6084 20.5652 11.6065C20.7696 11.6241 20.971 11.6648 21.1653 11.7277C21.556 11.8415 21.9272 12.009 22.2672 12.2249C22.6032 12.4379 22.8984 12.7042 23.14 13.0123C23.2868 13.2026 23.4071 13.4103 23.4979 13.6301C23.5525 13.756 23.5677 13.8902 23.6288 14.0108C23.6255 14.0231 23.6265 14.0361 23.6317 14.0478C23.6369 14.0595 23.6461 14.0692 23.6577 14.0753L23.6676 14.1154C23.6639 14.1189 23.661 14.1232 23.6593 14.1279C23.6575 14.1326 23.6569 14.1376 23.6574 14.1426C23.6579 14.1476 23.6596 14.1524 23.6623 14.1567C23.665 14.161 23.6687 14.1646 23.673 14.1674C23.673 14.2074 23.6757 14.248 23.6774 14.288C23.6703 14.3013 23.6678 14.3164 23.6704 14.3311C23.6729 14.3458 23.6804 14.3593 23.6916 14.3697L23.7128 14.4571C23.7065 14.4706 23.7047 14.4856 23.7077 14.5001C23.7106 14.5146 23.7181 14.5279 23.7292 14.5382L23.7396 14.5819Z" fill="#050505"/>
<path d="M9.14382 17.2982C8.98889 17.3024 8.85524 17.226 8.71177 17.188C8.48974 17.1234 8.27125 17.0483 8.05715 16.9628C7.96987 16.9305 7.90931 16.9685 7.84767 17.0148C7.84767 16.9477 7.81821 16.9165 7.73857 16.9061C7.61692 16.8889 7.49909 16.8432 7.37744 16.8271C7.17465 16.7933 6.96699 16.7963 6.76537 16.8359C6.59897 16.8782 6.44366 16.9532 6.30931 17.0559C6.36387 16.9331 6.46642 16.8395 6.53952 16.7282C6.55971 16.8088 6.60444 16.7917 6.64863 16.7485C6.69598 16.6968 6.75911 16.6604 6.82919 16.6445C6.86792 16.6357 6.92575 16.6445 6.92466 16.5873C6.92466 16.5431 6.87774 16.5218 6.83737 16.5082C6.80157 16.4991 6.7651 16.4925 6.72827 16.4885C6.81446 16.309 6.94648 16.1556 7.05558 15.9928C7.504 15.3479 7.95441 14.7043 8.40683 14.0618C8.42319 14.0379 8.43628 14.0098 8.45101 13.9869C8.48974 13.8241 8.62994 13.7393 8.75923 13.6629C9.04944 13.4918 9.39039 13.4621 9.71552 13.4065C9.95391 13.3659 10.2065 13.3935 10.4503 13.3789C10.9888 13.3462 11.5277 13.4044 12.0672 13.4034C12.1832 13.4019 12.299 13.4111 12.4131 13.4309C12.7476 13.4853 13.0862 13.5142 13.4256 13.5173C13.7356 13.5227 14.0455 13.5062 14.353 13.4679C14.5112 13.4507 14.6803 13.4595 14.827 13.3753H14.9307H15.0861C15.1014 13.3843 15.1185 13.3901 15.1363 13.3924C15.1542 13.3946 15.1723 13.3933 15.1895 13.3883C15.2067 13.3834 15.2226 13.3751 15.2362 13.3639C15.2498 13.3526 15.2608 13.3388 15.2683 13.3233C15.2784 13.3241 15.2886 13.3223 15.2976 13.318C15.3067 13.3137 15.3143 13.307 15.3196 13.2988H15.3714C15.4145 13.3508 15.4582 13.2931 15.5013 13.2988C15.5187 13.3238 15.5362 13.3233 15.5531 13.2988L15.6567 13.2744C15.7364 13.3201 15.7942 13.2936 15.8389 13.225C15.8476 13.2202 15.8547 13.2133 15.8595 13.2049C15.8643 13.1966 15.8667 13.1872 15.8662 13.1776H15.9688C15.9971 13.212 16.037 13.1974 16.0724 13.2005C16.1133 13.2385 16.1193 13.2073 16.127 13.1766H16.1777C16.2508 13.2317 16.2388 13.2837 16.1777 13.3394C16.025 13.4741 15.917 13.6442 15.7898 13.7986C15.5007 14.1512 15.2509 14.5267 14.9945 14.9033C14.7381 15.2798 14.5106 15.6589 14.2815 16.0433C14.0826 16.3744 13.8111 16.6607 13.4856 16.8827C13.2382 17.0478 12.973 17.1872 12.6946 17.2988C12.4518 17.4028 12.2009 17.4954 11.9363 17.5245C11.8177 17.5352 11.7057 17.5817 11.6166 17.6571C11.5497 17.717 11.4624 17.7519 11.3706 17.7554C11.3341 17.7554 11.2735 17.7419 11.2719 17.7871C11.2719 17.8448 11.3335 17.8282 11.3723 17.8282C11.6576 17.8282 11.9429 17.8282 12.2282 17.8282C12.2827 17.8282 12.334 17.822 12.3673 17.8729V17.8792H12.3602L11.9592 17.8823C11.4629 17.8875 10.9685 17.8222 10.4923 17.6888C10.0756 17.5713 9.65715 17.4579 9.24201 17.3352C9.2265 17.3288 9.21169 17.321 9.19782 17.3118C9.28347 17.2686 9.36148 17.2598 9.43949 17.3346C9.47713 17.3711 9.54859 17.408 9.58787 17.37C9.64242 17.318 9.54914 17.3232 9.5295 17.2962C9.52637 17.2913 9.52436 17.2859 9.52361 17.2802C9.52286 17.2746 9.52338 17.2688 9.52513 17.2634C9.55568 17.189 9.4864 17.1708 9.45149 17.1277C9.38003 17.0392 9.24747 17.0939 9.17873 17.007C9.17347 16.9966 9.16543 16.9877 9.15542 16.9811C9.1454 16.9746 9.13376 16.9707 9.12167 16.9698C9.10957 16.9689 9.09744 16.971 9.08649 16.976C9.07554 16.981 9.06615 16.9886 9.05926 16.9982C9.0511 17.0068 9.04527 17.0171 9.04226 17.0284C9.03926 17.0396 9.03918 17.0514 9.04203 17.0626C9.04488 17.0739 9.05057 17.0844 9.05861 17.0931C9.06665 17.1018 9.0768 17.1085 9.08818 17.1126C9.19182 17.1526 9.18091 17.2197 9.14382 17.2982ZM9.76898 17.4184C9.78416 17.4361 9.80408 17.4497 9.82664 17.4575C9.8492 17.4654 9.87356 17.4673 9.89718 17.4631C10.0297 17.46 10.1236 17.5812 10.2616 17.5546C10.3085 17.5453 10.3609 17.5546 10.3756 17.4974C10.3903 17.4402 10.357 17.4137 10.321 17.3835C10.2119 17.2972 10.0728 17.3419 9.95118 17.3112C9.94288 17.3121 9.93495 17.315 9.92817 17.3197C9.92138 17.3243 9.91597 17.3305 9.91245 17.3378C9.89827 17.4106 9.83062 17.3976 9.76898 17.4184ZM11.0182 17.5058H10.8638C10.6936 17.5058 10.806 17.6368 10.7744 17.7008C10.7547 17.7398 10.8567 17.7367 10.8731 17.7242C10.974 17.6472 11.0995 17.6649 11.2108 17.6316C11.2397 17.6228 11.2697 17.6035 11.2599 17.5697C11.2553 17.5536 11.2457 17.5392 11.2323 17.5283C11.219 17.5175 11.2026 17.5107 11.1851 17.5089C11.13 17.5016 11.0739 17.5058 11.0182 17.5058ZM8.33809 16.6903C8.31027 16.6965 8.23444 16.6606 8.2219 16.7366C8.21426 16.7813 8.26881 16.8265 8.31081 16.8271C8.40449 16.8303 8.49458 16.8622 8.56775 16.9181C8.61139 16.9477 8.64903 16.9269 8.67686 16.8915C8.70468 16.8562 8.71013 16.8182 8.67413 16.8073C8.5683 16.7735 8.48865 16.6695 8.33809 16.6903ZM7.59455 16.6695C7.64583 16.6762 7.68838 16.6461 7.73475 16.6414C7.78112 16.6367 7.81603 16.6247 7.81439 16.5779C7.81276 16.5311 7.76693 16.5186 7.72057 16.516C7.63492 16.5114 7.54709 16.5332 7.46472 16.5025C7.42435 16.488 7.38671 16.4505 7.36052 16.5103C7.35519 16.5218 7.35254 16.5343 7.35274 16.5469C7.35295 16.5595 7.356 16.5719 7.3617 16.5833C7.3674 16.5946 7.37561 16.6047 7.38576 16.6127C7.39592 16.6208 7.40778 16.6267 7.42053 16.6299C7.47745 16.6471 7.53561 16.6604 7.59455 16.6695V16.6695Z" fill="#DC3F4C"/>
<path d="M6.31303 17.0559C6.44737 16.9532 6.60269 16.8783 6.76908 16.8359C6.97071 16.7963 7.17836 16.7933 7.38115 16.8271C7.5028 16.8432 7.62063 16.889 7.74228 16.9061C7.81975 16.9165 7.84757 16.9477 7.85139 17.0148C7.85229 17.0187 7.85167 17.0227 7.84966 17.0262C7.84765 17.0296 7.84438 17.0322 7.84048 17.0335L7.82575 17.0642C7.82673 17.0659 7.82732 17.0678 7.82746 17.0697C7.8276 17.0716 7.8273 17.0735 7.82657 17.0753C7.82584 17.0771 7.8247 17.0787 7.82324 17.08C7.82178 17.0814 7.82002 17.0824 7.81811 17.083L7.8012 17.1178C7.7332 17.3584 7.60661 17.5803 7.43172 17.7655C7.25684 17.9506 7.03859 18.0938 6.79472 18.1834C6.45977 18.314 6.1401 18.2277 6.04354 17.8464C6.06417 17.7512 6.06546 17.653 6.04736 17.5573L6.06264 17.5027C6.06729 17.5013 6.07149 17.4988 6.07485 17.4955C6.0782 17.4921 6.0806 17.488 6.0818 17.4835C6.08301 17.479 6.08298 17.4743 6.08173 17.4698C6.08047 17.4653 6.07803 17.4613 6.07464 17.4579C6.08446 17.3695 6.1401 17.3019 6.18374 17.2301L6.2072 17.1995C6.20701 17.1952 6.20847 17.1911 6.21129 17.1878C6.21411 17.1846 6.21809 17.1824 6.22247 17.1818C6.22659 17.1808 6.23028 17.1786 6.23302 17.1755C6.23576 17.1725 6.23741 17.1686 6.23775 17.1646L6.24266 17.1578L6.26175 17.1324C6.27144 17.1292 6.27957 17.1227 6.28459 17.1141C6.28962 17.1056 6.29119 17.0956 6.28903 17.0861V17.0861L6.31139 17.059L6.31303 17.0559Z" fill="#BE3038"/>
<path d="M14.826 13.3727C14.6798 13.4569 14.5101 13.4481 14.3519 13.4652C14.0445 13.5036 13.7345 13.5201 13.4245 13.5146C13.0852 13.5116 12.7466 13.4827 12.412 13.4283C12.298 13.4085 12.1821 13.3993 12.0662 13.4007C11.5267 13.4007 10.9877 13.3435 10.4493 13.3763C10.2033 13.3909 9.95286 13.3633 9.71447 13.4039C9.38716 13.4595 9.04839 13.4892 8.75818 13.6603C8.62889 13.7367 8.48869 13.8215 8.44996 13.9843C8.44505 13.7892 8.51706 13.6036 8.52688 13.4122C8.55378 13.0181 8.53695 12.6223 8.47669 12.2316C8.41832 11.8837 8.34795 11.5363 8.32995 11.181C8.32067 10.9928 8.31085 10.804 8.30867 10.6157C8.30213 10.1112 8.4456 9.6416 8.68508 9.19641C8.73963 9.09551 8.77781 8.98838 8.85637 8.89736L8.82855 9.09291C8.8185 9.0922 8.80844 9.09415 8.79948 9.09856C8.79053 9.10297 8.78303 9.10965 8.77781 9.11788C8.70144 9.22191 8.64834 9.33981 8.6218 9.46425C8.6098 9.46875 8.59901 9.47576 8.59023 9.48476C8.58145 9.49376 8.5749 9.50452 8.57106 9.51626L8.51651 9.73833L8.49087 9.7633C8.40905 9.85795 8.46251 9.98277 8.41287 10.0847C8.38286 10.1029 8.38832 10.132 8.38777 10.1596C8.32996 10.4438 8.31635 10.7345 8.3474 11.0224C8.35831 11.1373 8.3294 11.2601 8.38832 11.3709L8.41396 11.4707C8.42895 11.566 8.43879 11.662 8.44341 11.7583C8.45542 11.8519 8.44341 11.9502 8.49087 12.0397C8.48986 12.0494 8.49173 12.0592 8.49626 12.0679C8.5008 12.0766 8.50781 12.084 8.51651 12.0891C8.52295 12.2712 8.54117 12.4527 8.57106 12.6326C8.62289 12.8703 8.58361 13.1111 8.59561 13.3498C8.52142 13.4423 8.55143 13.551 8.54488 13.6535C8.54488 13.6764 8.53997 13.7091 8.57488 13.7091C8.6098 13.7091 8.61907 13.6774 8.62289 13.6483C8.67455 13.6435 8.72391 13.6255 8.76581 13.5963C8.87492 13.5443 8.98402 13.4725 9.10185 13.4559C9.23932 13.4366 9.36806 13.3898 9.50444 13.3721C9.52095 13.3717 9.53715 13.3678 9.55182 13.3605C9.56648 13.3533 9.57923 13.343 9.58911 13.3304C9.59898 13.3177 9.60572 13.3031 9.60882 13.2877C9.61192 13.2722 9.6113 13.2563 9.607 13.2411C9.59947 13.2092 9.59454 13.1769 9.59227 13.1443C9.62828 12.8037 9.60264 12.4615 9.60591 12.1203C9.60591 11.9367 9.59173 11.7521 9.63646 11.5721C9.65719 11.4894 9.69483 11.413 9.68774 11.3235C9.67464 11.1623 9.68228 11.0026 9.7652 10.8555C9.78774 10.8105 9.79626 10.7603 9.78975 10.7109C9.77666 10.5439 9.89885 10.3988 9.88249 10.2329C9.88249 10.2189 9.89558 10.2033 9.90485 10.1892C9.99377 10.0493 10.008 9.885 10.0685 9.73469C10.1089 9.63068 10.14 9.51626 10.188 9.42264C10.278 9.24478 10.3516 9.05859 10.4515 8.8854C10.6151 8.59936 10.7706 8.31331 10.9768 8.05327C11.1555 7.82323 11.3481 7.60321 11.5534 7.39433C11.8131 7.13429 12.0662 6.87425 12.3799 6.67558C12.4208 6.64957 12.4601 6.62357 12.4644 6.57156C12.519 6.5674 12.5795 6.56792 12.5926 6.49719C12.6712 6.46443 12.7388 6.40774 12.8294 6.40358C12.813 6.44934 12.927 6.49355 12.8359 6.53828C12.6871 6.61946 12.5457 6.71236 12.4131 6.816C12.1409 7.00258 11.8902 7.21614 11.6652 7.4531C11.4456 7.68693 11.2412 7.93339 11.0532 8.19109C10.8009 8.55375 10.5792 8.93495 10.3904 9.33111C10.3418 9.43096 10.3282 9.54434 10.2665 9.63276C10.1885 9.74509 10.164 9.87511 10.1367 9.99681C10.0996 10.1612 9.98232 10.3089 10.0074 10.4852C10.007 10.4936 10.0033 10.5016 9.99704 10.5075C9.91467 10.5907 9.91522 10.6932 9.92013 10.7977C9.92989 10.8509 9.92128 10.9057 9.89558 10.9538C9.82903 11.0469 9.83721 11.1504 9.84375 11.2512C9.84646 11.387 9.82601 11.5222 9.7832 11.6517C9.76144 11.6963 9.7462 11.7436 9.73792 11.7921C9.73792 12.2775 9.73792 12.764 9.73792 13.2515C9.73792 13.317 9.76411 13.3555 9.83666 13.3513C9.88794 13.3487 9.93977 13.3461 9.99104 13.3415C10.1994 13.3206 10.4067 13.2858 10.6157 13.2806C10.891 13.2746 11.1665 13.2873 11.4399 13.3186C11.9467 13.3737 12.4579 13.3747 12.9674 13.4356C13.4397 13.4942 13.9189 13.4782 14.3857 13.3883C14.5221 13.3576 14.6781 13.3035 14.826 13.3727Z" fill="#C93A44"/>
<path d="M12.5936 6.49513C12.5805 6.56587 12.5211 6.56535 12.4654 6.56951C12.3524 6.62681 12.2256 6.65479 12.0977 6.65064C12.0852 6.65064 12.0655 6.66676 12.059 6.67976C12.0268 6.74685 11.9663 6.74269 11.9046 6.74269C11.8615 6.74269 11.8053 6.73333 11.7786 6.75465C11.6106 6.8878 11.3793 6.87687 11.2036 7.00065C11.0945 7.07814 10.9467 7.10467 10.8218 7.17176C10.6424 7.26736 10.4691 7.37313 10.303 7.48849C9.95499 7.7351 9.64311 8.02492 9.37561 8.35026C9.32219 8.40956 9.27842 8.47619 9.24577 8.54789C9.23704 8.54789 9.22613 8.54789 9.22123 8.55361C9.0783 8.68831 9.00902 8.86566 8.90919 9.02845C8.88791 9.06329 8.87264 9.09034 8.829 9.0919L8.85682 8.89635C8.91137 8.89635 8.91137 8.86046 8.9081 8.82458V8.82197L8.92828 8.78557V8.77777L8.93537 8.77413C9.01666 8.76581 9.01338 8.7086 9.01338 8.65295V8.64983C9.07775 8.64359 9.09194 8.60354 9.08757 8.54997L9.1023 8.52449L9.11485 8.50473V8.5016C9.17704 8.49692 9.19231 8.45792 9.19122 8.40695V8.40279C9.23814 8.39915 9.24086 8.3669 9.24032 8.33206L9.24359 8.32842L9.26432 8.30345C9.31287 8.30345 9.31887 8.27225 9.31887 8.2374L9.32433 8.23064L9.34342 8.21088L9.34779 8.20568L9.36851 8.18228C9.38274 8.18195 9.39673 8.17878 9.40959 8.17296C9.42244 8.16715 9.43387 8.15882 9.44313 8.14852C9.45239 8.13822 9.45928 8.12618 9.46334 8.11318C9.4674 8.10018 9.46855 8.08651 9.46671 8.07306C9.46599 8.07149 9.46569 8.06977 9.46583 8.06807C9.46597 8.06636 9.46656 8.06471 9.46753 8.06327C9.4685 8.06183 9.46983 8.06064 9.4714 8.05981C9.47297 8.05898 9.47473 8.05852 9.47653 8.0585L9.49671 8.03405C9.51191 8.0005 9.53974 7.97359 9.57472 7.95864L9.59981 7.93524L9.62436 7.91131C9.62822 7.89902 9.63523 7.88782 9.64475 7.87875C9.65428 7.86967 9.66601 7.86299 9.67891 7.85931L9.70401 7.8359L9.73074 7.8099L9.75583 7.78597L9.78311 7.76049L9.8082 7.73865L9.8322 7.7168L9.85566 7.69496H9.85893L9.88185 7.67624C9.88192 7.67446 9.88242 7.67272 9.88332 7.67117C9.88422 7.66961 9.88549 7.66827 9.88702 7.66726C9.88856 7.66625 9.89032 7.6656 9.89217 7.66535C9.89402 7.6651 9.8959 7.66527 9.89767 7.66584C9.90839 7.66859 9.91965 7.66886 9.9305 7.66664C9.94136 7.66441 9.9515 7.65975 9.96009 7.65303C9.96868 7.64632 9.97546 7.63775 9.97988 7.62804C9.9843 7.61833 9.98622 7.60775 9.98549 7.59719L10.0095 7.57898C10.0099 7.57695 10.0108 7.57503 10.0122 7.5734C10.0135 7.57177 10.0152 7.57047 10.0172 7.5696C10.0192 7.56874 10.0213 7.56834 10.0235 7.56843C10.0257 7.56852 10.0278 7.56911 10.0297 7.57014L10.0613 7.55298L10.1431 7.47497C10.2435 7.43648 10.3515 7.40944 10.399 7.30074L10.4257 7.28618C10.428 7.28273 10.4311 7.27988 10.4348 7.27789C10.4386 7.27589 10.4427 7.2748 10.447 7.27474C10.4557 7.27662 10.4648 7.27674 10.4736 7.27509C10.4824 7.27344 10.4907 7.27006 10.4981 7.26516C10.5054 7.26027 10.5116 7.25396 10.5162 7.24666C10.5209 7.23935 10.5239 7.2312 10.525 7.22273V7.22273C10.5282 7.22367 10.5316 7.22396 10.535 7.22359C10.5383 7.22323 10.5416 7.22221 10.5445 7.2206C10.5474 7.21899 10.5499 7.21682 10.5519 7.21424C10.5539 7.21165 10.5554 7.2087 10.5561 7.20556C10.5575 7.20262 10.56 7.20026 10.5631 7.19892C10.5662 7.19758 10.5697 7.19736 10.573 7.19828C10.6057 7.19442 10.6372 7.18405 10.6654 7.16783C10.6936 7.15161 10.7179 7.12991 10.7367 7.10415C10.7371 7.10278 10.7379 7.10152 10.7389 7.10044C10.74 7.09937 10.7412 7.09852 10.7426 7.09793C10.744 7.09734 10.7455 7.09704 10.747 7.09703C10.7485 7.09703 10.75 7.09733 10.7514 7.09791C10.8207 7.11559 10.8523 7.0667 10.89 7.0277C11.0498 6.99203 11.2004 6.92605 11.3329 6.83371C11.3345 6.83083 11.3372 6.82862 11.3404 6.82747C11.3436 6.82632 11.3472 6.82632 11.3504 6.82747C11.3766 6.82747 11.4077 6.83631 11.4267 6.82747C11.6297 6.70993 11.8773 6.71253 12.0814 6.60175C12.122 6.58825 12.1649 6.58225 12.2079 6.58407C12.2456 6.57991 12.2865 6.59135 12.3198 6.56379C12.3556 6.53125 12.3995 6.50789 12.4474 6.49589C12.4953 6.48389 12.5456 6.48363 12.5936 6.49513V6.49513Z" fill="#BC2933"/>
<path d="M9.14379 17.2983C9.18088 17.2197 9.19179 17.1526 9.08542 17.109C9.07404 17.1048 9.06389 17.0981 9.05585 17.0894C9.04781 17.0807 9.04212 17.0703 9.03927 17.059C9.03642 17.0477 9.0365 17.036 9.0395 17.0247C9.04251 17.0135 9.04834 17.0031 9.0565 16.9945C9.06339 16.985 9.07278 16.9774 9.08373 16.9724C9.09468 16.9674 9.10681 16.9653 9.11891 16.9662C9.131 16.9671 9.14264 16.971 9.15265 16.9775C9.16267 16.984 9.17071 16.993 9.17597 17.0034C9.24198 17.0902 9.37454 17.0356 9.44873 17.124C9.48364 17.1672 9.55292 17.1854 9.52237 17.2598C9.52062 17.2652 9.5201 17.271 9.52085 17.2766C9.5216 17.2823 9.52361 17.2877 9.52674 17.2925C9.54638 17.3196 9.63584 17.3139 9.58511 17.3664C9.54747 17.4044 9.476 17.3664 9.43673 17.331C9.35926 17.2556 9.28071 17.265 9.19506 17.3081L9.14379 17.2983Z" fill="#D33544"/>
<path d="M12.5937 6.49514C12.5499 6.48453 12.5041 6.4837 12.4599 6.49272C12.4157 6.50174 12.3743 6.52037 12.3389 6.54715C12.3056 6.57471 12.2647 6.56327 12.2271 6.56743C12.1841 6.56561 12.1411 6.57161 12.1005 6.58512C11.8949 6.69589 11.6472 6.69329 11.4459 6.81083C11.4268 6.82175 11.3957 6.81083 11.3695 6.81083C11.4241 6.73542 11.5206 6.73802 11.5992 6.70682C11.8925 6.59933 12.1937 6.51241 12.5004 6.44678C12.6346 6.41817 12.7617 6.35992 12.9035 6.36304L12.9128 6.3724C12.9094 6.37854 12.9074 6.38526 12.9068 6.39217L12.832 6.39685C12.7399 6.40569 12.6722 6.46238 12.5937 6.49514Z" fill="#C55157"/>
<path d="M6.72709 16.4859C6.76392 16.4899 6.80038 16.4965 6.83619 16.5056C6.87656 16.5191 6.92238 16.5405 6.92347 16.5847C6.92347 16.6424 6.86892 16.633 6.82801 16.6419C6.75792 16.6578 6.6948 16.6941 6.64744 16.7459C6.60544 16.7891 6.5607 16.8062 6.53834 16.7256C6.53834 16.6674 6.60435 16.6549 6.62289 16.6096L6.64417 16.5816C6.66817 16.5774 6.67526 16.5607 6.67635 16.5399L6.68017 16.5347L6.70036 16.5119V16.5093L6.72272 16.4833L6.72709 16.4859Z" fill="#D33544"/>
<path d="M11.3505 6.82017C11.218 6.91252 11.0674 6.97849 10.9076 7.01416C11.0382 6.9188 11.1895 6.85251 11.3505 6.82017V6.82017Z" fill="#C55157"/>
<path d="M10.4149 7.28719C10.3674 7.39588 10.2594 7.42293 10.159 7.46141C10.2268 7.38296 10.315 7.32288 10.4149 7.28719V7.28719Z" fill="#C55157"/>
<path d="M6.04528 17.5573C6.06338 17.653 6.06209 17.7512 6.04146 17.8464C6.0137 17.8027 5.99934 17.7524 6.00002 17.7013C6.00069 17.6502 6.01637 17.6003 6.04528 17.5573V17.5573Z" fill="#DC3F4C"/>
<path d="M10.7537 7.09057C10.7348 7.11634 10.7105 7.13803 10.6823 7.15425C10.6541 7.17047 10.6227 7.18085 10.59 7.18471C10.6068 7.15716 10.6306 7.13409 10.6592 7.11763C10.6878 7.10118 10.7203 7.09187 10.7537 7.09057V7.09057Z" fill="#C55157"/>
<path d="M9.47711 8.06837C9.47895 8.08182 9.4778 8.09549 9.47374 8.10849C9.46968 8.12149 9.46279 8.13353 9.45353 8.14383C9.44427 8.15413 9.43284 8.16246 9.41999 8.16827C9.40713 8.17409 9.39314 8.17726 9.37891 8.17759C9.38621 8.15378 9.39875 8.13173 9.41568 8.1129C9.43261 8.09407 9.45355 8.07889 9.47711 8.06837V8.06837Z" fill="#C93A44"/>
<path d="M10.9069 7.01416C10.8693 7.05317 10.8377 7.10206 10.7684 7.08437C10.7814 7.06078 10.8016 7.04148 10.8263 7.02896C10.8511 7.01644 10.8791 7.01129 10.9069 7.01416V7.01416Z" fill="#C55157"/>
<path d="M9.01508 8.65084C9.01508 8.70648 9.01835 8.76369 8.93707 8.77201C8.94852 8.72459 8.97591 8.68204 9.01508 8.65084V8.65084Z" fill="#C93A44"/>
<path d="M12.9831 6.27149C12.9831 6.29593 12.9831 6.32349 12.9831 6.34534L12.91 6.37706L12.9008 6.3677L12.9831 6.27149Z" fill="#C55157"/>
<path d="M9.09098 8.5479C9.09535 8.59991 9.08116 8.64151 9.01679 8.64775C9.01984 8.62665 9.02817 8.60656 9.04109 8.58918C9.054 8.5718 9.07111 8.55764 9.09098 8.5479V8.5479Z" fill="#C93A44"/>
<path d="M9.19675 8.40489C9.19675 8.45689 9.18257 8.49486 9.12038 8.49954C9.12365 8.45221 9.16074 8.42829 9.19675 8.40489Z" fill="#C93A44"/>
<path d="M9.99973 7.58522C10.0005 7.59579 9.99854 7.60636 9.99412 7.61608C9.9897 7.62579 9.98291 7.63436 9.97433 7.64107C9.96574 7.64778 9.9556 7.65245 9.94474 7.65467C9.93388 7.6569 9.92263 7.65662 9.9119 7.65387C9.92013 7.63683 9.93231 7.6218 9.94753 7.6099C9.96274 7.59801 9.98059 7.58957 9.99973 7.58522V7.58522Z" fill="#C93A44"/>
<path d="M10.5414 7.20868C10.5403 7.21715 10.5373 7.2253 10.5326 7.23261C10.528 7.23992 10.5218 7.24622 10.5145 7.25112C10.5071 7.25601 10.4988 7.25939 10.49 7.26104C10.4812 7.26269 10.4721 7.26257 10.4634 7.26069C10.4681 7.24478 10.4785 7.23091 10.4927 7.22144C10.5069 7.21196 10.5241 7.20746 10.5414 7.20868V7.20868Z" fill="#C55157"/>
<path d="M8.91037 8.82249C8.91037 8.85838 8.91037 8.8927 8.85909 8.89427C8.8611 8.87929 8.86679 8.86499 8.8757 8.85252C8.88461 8.84004 8.89649 8.82975 8.91037 8.82249V8.82249Z" fill="#C93A44"/>
<path d="M9.24855 8.32994C9.24855 8.36479 9.24855 8.39703 9.19946 8.40067C9.1987 8.38544 9.20305 8.37037 9.21187 8.35765C9.2207 8.34494 9.23355 8.33523 9.24855 8.32994V8.32994Z" fill="#C93A44"/>
<path d="M9.32713 8.23431C9.32713 8.26916 9.32168 8.30088 9.27258 8.30036C9.27331 8.2853 9.27897 8.27084 9.28875 8.259C9.29853 8.24716 9.31195 8.23852 9.32713 8.23431V8.23431Z" fill="#C93A44"/>
<path d="M6.67917 16.5436C6.67917 16.5644 6.67099 16.581 6.64699 16.5852C6.6519 16.5654 6.65735 16.5498 6.67917 16.5436Z" fill="#DC3F4C"/>
<path d="M6.29024 17.0855C6.29241 17.0951 6.29083 17.1051 6.2858 17.1136C6.28078 17.1221 6.27265 17.1286 6.26296 17.1318C6.26041 17.1223 6.26181 17.1121 6.26689 17.1035C6.27197 17.0949 6.28033 17.0884 6.29024 17.0855V17.0855Z" fill="#DC3F4C"/>
<path d="M6.07243 17.4579C6.07583 17.4613 6.07827 17.4654 6.07952 17.4698C6.08078 17.4743 6.0808 17.479 6.0796 17.4835C6.07839 17.488 6.076 17.4921 6.07264 17.4955C6.06929 17.4988 6.06508 17.5013 6.06043 17.5027C6.05726 17.495 6.05672 17.4865 6.05887 17.4785C6.06103 17.4704 6.06577 17.4633 6.07243 17.4579V17.4579Z" fill="#DC3F4C"/>
<path d="M10.5721 7.19205C10.5713 7.19519 10.5699 7.19814 10.5679 7.20072C10.5659 7.20331 10.5633 7.20547 10.5604 7.20708C10.5575 7.20869 10.5543 7.20971 10.5509 7.21008C10.5476 7.21045 10.5442 7.21015 10.541 7.20922C10.5448 7.19257 10.5562 7.18841 10.5721 7.19205Z" fill="#C55157"/>
<path d="M9.11828 8.50421L9.10574 8.52397C9.09974 8.50993 9.10355 8.50421 9.11828 8.50421Z" fill="#C93A44"/>
<path d="M9.27264 8.30137L9.25191 8.32633C9.24919 8.31073 9.25901 8.30293 9.27264 8.30137Z" fill="#C93A44"/>
<path d="M9.35166 8.20775L9.33256 8.22751C9.32984 8.21295 9.33529 8.20567 9.35166 8.20775Z" fill="#C93A44"/>
<path d="M9.76575 7.7818L9.74065 7.80573C9.74021 7.80248 9.74055 7.79919 9.74165 7.79609C9.74275 7.79299 9.74459 7.79018 9.74701 7.78786C9.74944 7.78555 9.75239 7.7838 9.75564 7.78275C9.75889 7.7817 9.76235 7.78137 9.76575 7.7818V7.7818Z" fill="#C93A44"/>
<path d="M9.81807 7.73441L9.79298 7.75625C9.79298 7.74065 9.80444 7.73337 9.81807 7.73441Z" fill="#C93A44"/>
<path d="M9.84427 7.71005L9.82027 7.7319C9.81962 7.7288 9.8198 7.7256 9.8208 7.72259C9.82179 7.71958 9.82357 7.71686 9.82597 7.71468C9.82836 7.7125 9.8313 7.71093 9.8345 7.71012C9.8377 7.70931 9.84106 7.70929 9.84427 7.71005V7.71005Z" fill="#C93A44"/>
<path d="M9.60972 7.93211L9.58462 7.95552C9.58427 7.95231 9.58468 7.94908 9.58582 7.94605C9.58696 7.94301 9.58881 7.94027 9.59122 7.93802C9.59364 7.93577 9.59656 7.93407 9.59976 7.93304C9.60296 7.93202 9.60637 7.9317 9.60972 7.93211V7.93211Z" fill="#C93A44"/>
<path d="M9.86985 7.68558L9.84639 7.70742C9.84585 7.69182 9.85349 7.68454 9.86985 7.68558Z" fill="#C93A44"/>
<path d="M6.72779 16.4869L6.70543 16.5129C6.70478 16.5097 6.70488 16.5065 6.7057 16.5034C6.70653 16.5003 6.70806 16.4974 6.7102 16.4949C6.71234 16.4924 6.71502 16.4904 6.71806 16.489C6.7211 16.4876 6.72442 16.4869 6.72779 16.4869V16.4869Z" fill="#DC3F4C"/>
<path d="M9.89614 7.66427L9.87323 7.683C9.87214 7.66705 9.87978 7.66081 9.89614 7.66427Z" fill="#C93A44"/>
<path d="M6.70319 16.5134L6.683 16.5363C6.68137 16.5238 6.68682 16.5134 6.70319 16.5134Z" fill="#DC3F4C"/>
<path d="M6.64912 16.5842L6.62784 16.6123C6.62402 16.5956 6.63166 16.5868 6.64912 16.5842Z" fill="#DC3F4C"/>
<path d="M9.5065 8.02938L9.48632 8.05382C9.48359 8.03874 9.48959 8.03042 9.5065 8.02938Z" fill="#C93A44"/>
<path d="M9.37685 8.17919L9.35612 8.20259C9.35339 8.18699 9.36212 8.18023 9.37685 8.17919Z" fill="#C93A44"/>
<path d="M10.0772 7.53943L10.0456 7.55659L10.0772 7.53943Z" fill="#C93A44"/>
<path d="M9.63581 7.90559L9.61126 7.92951C9.61071 7.9263 9.61097 7.92301 9.612 7.9199C9.61303 7.9168 9.61481 7.91397 9.6172 7.91164C9.61959 7.90932 9.62251 7.90756 9.62575 7.90651C9.62898 7.90545 9.63242 7.90514 9.63581 7.90559Z" fill="#C93A44"/>
<path d="M7.82364 17.0642L7.84055 17.0335C7.84192 17.0366 7.84255 17.0399 7.84241 17.0432C7.84227 17.0465 7.84136 17.0498 7.83974 17.0527C7.83812 17.0556 7.83584 17.0582 7.83305 17.0602C7.83027 17.0622 7.82705 17.0636 7.82364 17.0642V17.0642Z" fill="#DC3F4C"/>
<path d="M6.31313 17.0564L6.29077 17.0834C6.28913 17.0673 6.29513 17.0574 6.31313 17.0564Z" fill="#DC3F4C"/>
<path d="M7.79905 17.1178L7.81596 17.0829C7.81751 17.0863 7.81831 17.0899 7.81828 17.0935C7.81825 17.0971 7.81741 17.1007 7.81581 17.104C7.81421 17.1073 7.81188 17.1103 7.80899 17.1126C7.8061 17.115 7.80271 17.1168 7.79905 17.1178Z" fill="#DC3F4C"/>
<path d="M6.26232 17.1324L6.24323 17.1578C6.24205 17.155 6.24164 17.1518 6.24205 17.1487C6.24245 17.1457 6.24366 17.1427 6.24555 17.1402C6.24745 17.1377 6.24997 17.1356 6.2529 17.1343C6.25582 17.1329 6.25906 17.1322 6.26232 17.1324Z" fill="#DC3F4C"/>
<path d="M10.0253 7.56804L10.0013 7.58624C10.0013 7.56804 10.01 7.56231 10.0253 7.56804Z" fill="#C93A44"/>
<path d="M6.20793 17.1994L6.18447 17.2301C6.18368 17.2266 6.18368 17.223 6.18446 17.2195C6.18525 17.216 6.18679 17.2126 6.18901 17.2098C6.19122 17.2069 6.19405 17.2044 6.19731 17.2027C6.20057 17.2009 6.20419 17.1998 6.20793 17.1994V17.1994Z" fill="#DC3F4C"/>
<path d="M9.71397 7.83173L9.68888 7.85513C9.68841 7.85191 9.68873 7.84862 9.68984 7.84554C9.69094 7.84246 9.69279 7.83967 9.69523 7.83739C9.69767 7.83512 9.70064 7.83342 9.70389 7.83243C9.70715 7.83145 9.7106 7.83121 9.71397 7.83173V7.83173Z" fill="#C93A44"/>
<path d="M8.93168 8.7835L8.91149 8.81991C8.90965 8.81254 8.91068 8.80478 8.91439 8.79808C8.91811 8.79138 8.92425 8.7862 8.93168 8.7835V8.7835Z" fill="#C93A44"/>
<path d="M10.4421 7.27213L10.4154 7.28669C10.4155 7.28374 10.4163 7.28086 10.4179 7.27833C10.4195 7.27579 10.4218 7.2737 10.4244 7.27223C10.4271 7.27077 10.4302 7.26999 10.4333 7.26997C10.4364 7.26995 10.4394 7.27069 10.4421 7.27213V7.27213Z" fill="#C55157"/>
<path d="M6.23734 17.1646C6.23702 17.1683 6.23547 17.1719 6.2329 17.1748C6.23033 17.1777 6.22687 17.1797 6.22302 17.1806C6.21893 17.1685 6.22404 17.1631 6.23734 17.1646Z" fill="#DC3F4C"/>
<path d="M19.7362 25.2939C19.7525 25.2939 19.7602 25.3043 19.7558 25.3204C19.7411 25.3168 19.7329 25.309 19.7362 25.2939Z" fill="#585959"/>
<path d="M20.5512 11.6179C20.5659 11.7864 20.4764 11.8644 20.3095 11.8988C20.0869 11.9445 19.8671 11.9991 19.6445 12.0433C19.4272 12.0944 19.2131 12.1576 19.0035 12.2327C18.6244 12.3528 18.2436 12.4693 17.8907 12.6534C17.7719 12.7189 17.6573 12.7911 17.5476 12.8698C17.5399 12.7595 17.4745 12.8099 17.4205 12.8287C17.4099 12.8272 17.399 12.8287 17.3893 12.8331C17.3796 12.8374 17.3715 12.8444 17.3659 12.8531C17.3157 12.8637 17.2704 12.8894 17.2366 12.9264H17.133H17.0812C16.9939 12.9233 16.8984 12.9051 16.8728 13.0232L16.7178 13.0263H16.6142C16.5116 12.9426 16.5842 12.8822 16.6469 12.8255C16.7751 12.7101 16.9153 12.6056 17.0337 12.4818C17.1555 12.3612 17.2874 12.2502 17.4281 12.15C17.5956 12.0251 17.7707 11.9071 17.9425 11.7859C18.1588 11.6282 18.3389 11.43 18.4717 11.2034C18.5952 11.0071 18.7008 10.8011 18.7875 10.5876C18.8509 10.4231 18.8907 10.2511 18.9059 10.0764C18.9555 9.5532 18.9174 9.04612 18.6959 8.56193C18.4796 8.07889 18.1781 7.63473 17.8045 7.24872C17.7069 7.14939 17.6272 7.02093 17.4701 6.98868C17.3937 6.91015 17.325 6.82382 17.211 6.79053C17.211 6.74372 17.1744 6.72084 17.1406 6.69484C17.0015 6.58718 16.846 6.50293 16.7009 6.40515C16.6001 6.33123 16.4803 6.28452 16.354 6.26993C16.3065 6.26577 16.2591 6.25485 16.2503 6.19712V6.14511C16.2781 6.15499 16.3065 6.16316 16.3354 6.16955C16.5749 6.207 16.8182 6.1992 17.0566 6.26577C17.3468 6.3469 17.6234 6.44468 17.8749 6.61006C17.9463 6.65739 18.0113 6.72188 18.104 6.7354C18.1069 6.73492 18.11 6.7355 18.1125 6.73704C18.115 6.73858 18.1169 6.74096 18.1176 6.74372C18.1345 6.79989 18.1662 6.83838 18.2344 6.83422C18.2358 6.83383 18.2373 6.83375 18.2388 6.83397C18.2403 6.83419 18.2417 6.83472 18.2429 6.83551C18.2442 6.8363 18.2452 6.83734 18.246 6.83855C18.2468 6.83976 18.2473 6.84112 18.2475 6.84254C18.302 6.95488 18.4111 7.02041 18.4951 7.10258C18.5497 7.15459 18.5677 7.24768 18.6648 7.2586L18.7455 7.35066C18.7422 7.38342 18.7548 7.40267 18.7913 7.40787L18.8126 7.43075C18.8159 7.43126 18.8188 7.43295 18.8209 7.43546C18.8229 7.43797 18.8238 7.44112 18.8235 7.44427C18.8526 7.55824 18.9237 7.65846 19.0237 7.72668V7.72668C19.021 7.7364 19.0224 7.74674 19.0276 7.75548C19.0328 7.76423 19.0414 7.77069 19.0516 7.77348V7.77348C19.0496 7.80613 19.0603 7.83833 19.0816 7.86398C19.2448 8.12837 19.3927 8.40114 19.5245 8.68102C19.6336 8.92026 19.7329 9.16366 19.8338 9.40654C19.9615 9.71494 20.064 10.0306 20.1611 10.3484C20.2784 10.7327 20.375 11.1223 20.4786 11.5103C20.489 11.5531 20.5146 11.5912 20.5512 11.6179Z" fill="#B72A33"/>
<path d="M18.1044 6.73596C18.0116 6.72244 17.9467 6.65795 17.8752 6.61062C17.6259 6.44524 17.3494 6.34746 17.057 6.26633C16.8186 6.19976 16.5753 6.20756 16.3358 6.17011C16.3069 6.16371 16.2785 6.15555 16.2507 6.14567C16.2092 6.13554 16.1671 6.1279 16.1247 6.12279C15.7782 6.09688 15.4305 6.09098 15.0833 6.1051C14.9098 6.1155 14.7331 6.0999 14.5618 6.14255L14.4358 6.14931C14.3877 6.15555 14.3266 6.11811 14.3032 6.19456H14.2786C14.1248 6.22245 13.9671 6.22543 13.8122 6.2034C13.7971 6.19963 13.7833 6.19226 13.772 6.18198C13.7608 6.17169 13.7525 6.15884 13.7479 6.14463L13.756 6.12955C13.7874 6.15046 13.8232 6.16452 13.8609 6.17072C13.8987 6.17692 13.9373 6.17512 13.9742 6.16543C14.5712 6.07575 15.1761 6.04248 15.7799 6.0661C16.1855 6.07489 16.5892 6.12087 16.9855 6.2034C17.3743 6.28702 17.7392 6.45108 18.0542 6.68395C18.0726 6.69973 18.0894 6.71714 18.1044 6.73596Z" fill="#C55157"/>
<path d="M20.5511 11.6179C20.5169 11.5928 20.4922 11.5577 20.4807 11.518C20.3771 11.1301 20.2805 10.7405 20.1632 10.3562C20.0667 10.0389 19.9641 9.72272 19.8359 9.41431C19.735 9.17143 19.6379 8.92804 19.5266 8.6888C19.3948 8.40891 19.2469 8.13615 19.0837 7.87175C19.0624 7.8461 19.0517 7.81391 19.0537 7.78126C19.1698 7.88527 19.2288 8.02361 19.3008 8.15207C19.5669 8.63115 19.7915 9.13019 19.9723 9.64419C20.0934 9.9812 20.2047 10.3203 20.2914 10.6703C20.37 10.985 20.4736 11.2944 20.5642 11.6064C20.5637 11.6095 20.5621 11.6123 20.5598 11.6144C20.5574 11.6164 20.5543 11.6177 20.5511 11.6179V11.6179Z" fill="#C55157"/>
<path d="M13.7584 6.13212L13.7502 6.1472C13.6133 6.1053 13.4692 6.08871 13.3258 6.09832C13.2794 6.09832 13.2685 6.07075 13.2712 6.03383C13.392 6.0222 13.5136 6.02098 13.6346 6.03018L13.6733 6.04579L13.7164 6.03695L13.7262 6.04527L13.7137 6.06971L13.7328 6.09884L13.7584 6.13212Z" fill="#B72A33"/>
<path d="M18.6652 7.26271C18.5681 7.25075 18.5512 7.1587 18.4955 7.10669C18.4088 7.02399 18.3008 6.95846 18.2479 6.84665C18.4167 6.95517 18.559 7.09707 18.6652 7.26271V7.26271Z" fill="#C55157"/>
<path d="M19.0263 7.73293C18.9263 7.66471 18.8552 7.56449 18.8261 7.45053C18.9099 7.53261 18.9777 7.62823 19.0263 7.73293V7.73293Z" fill="#C55157"/>
<path d="M18.2348 6.83681C18.1667 6.84097 18.135 6.80248 18.1181 6.74631C18.1432 6.75257 18.1666 6.76389 18.1868 6.7795C18.2069 6.79511 18.2233 6.81465 18.2348 6.83681Z" fill="#C55157"/>
<path d="M23.732 14.5371C23.7209 14.5268 23.7134 14.5135 23.7105 14.499C23.7076 14.4845 23.7094 14.4695 23.7157 14.456C23.7484 14.4752 23.7604 14.5012 23.732 14.5371Z" fill="#929191"/>
<path d="M18.7917 7.41203C18.7552 7.40839 18.7426 7.38759 18.7459 7.35482C18.7589 7.35854 18.7703 7.36608 18.7785 7.37635C18.7868 7.38662 18.7914 7.39911 18.7917 7.41203V7.41203Z" fill="#C55157"/>
<path d="M23.6604 14.0738C23.6488 14.0676 23.6396 14.0579 23.6344 14.0463C23.6291 14.0346 23.6281 14.0216 23.6315 14.0093C23.668 14.0197 23.6768 14.0415 23.6604 14.0738Z" fill="#929191"/>
<path d="M23.6759 14.1637C23.6715 14.161 23.6679 14.1573 23.6651 14.153C23.6624 14.1487 23.6608 14.1439 23.6603 14.139C23.6597 14.134 23.6604 14.129 23.6621 14.1242C23.6639 14.1195 23.6667 14.1153 23.6704 14.1117C23.6756 14.1138 23.6801 14.1171 23.6835 14.1214C23.6869 14.1257 23.6889 14.1308 23.6895 14.1362C23.69 14.1415 23.6891 14.1469 23.6867 14.1517C23.6843 14.1566 23.6806 14.1607 23.6759 14.1637V14.1637Z" fill="#929191"/>
<path d="M23.6944 14.366C23.6832 14.3556 23.6758 14.3421 23.6732 14.3274C23.6707 14.3127 23.6731 14.2976 23.6802 14.2843C23.6906 14.2952 23.6975 14.3087 23.7 14.3231C23.7025 14.3376 23.7006 14.3525 23.6944 14.366Z" fill="#929191"/>
<path d="M19.0552 7.78126C19.0451 7.77847 19.0365 7.77201 19.0313 7.76326C19.0261 7.75452 19.0247 7.74418 19.0274 7.73445C19.0371 7.73794 19.0451 7.74453 19.0502 7.75307C19.0553 7.76162 19.0571 7.77159 19.0552 7.78126Z" fill="#C55157"/>
<path d="M13.7322 6.09879L13.7131 6.06966C13.7208 6.07229 13.7286 6.07438 13.7366 6.0759C13.7375 6.0798 13.7376 6.08383 13.7368 6.08776C13.7361 6.09169 13.7345 6.09544 13.7322 6.09879V6.09879Z" fill="#B32F38"/>
<path d="M18.8152 7.43695L18.7939 7.41407C18.8097 7.41199 18.8173 7.42135 18.8152 7.43695Z" fill="#C55157"/>
<path d="M13.7354 6.07597C13.7275 6.07445 13.7196 6.07236 13.712 6.06973L13.7245 6.04528C13.7276 6.04635 13.7304 6.04806 13.7326 6.05029C13.7349 6.05251 13.7366 6.05519 13.7377 6.05814C13.7387 6.06108 13.7391 6.06421 13.7387 6.0673C13.7383 6.07038 13.7372 6.07335 13.7354 6.07597Z" fill="#D2898E"/>
<path d="M23.7058 15.5528C23.7134 15.5008 23.7025 15.4488 23.7325 15.4004C23.7511 15.4556 23.7762 15.5117 23.7058 15.5528Z" fill="#929191"/>
<path d="M23.6801 15.6262C23.6703 15.6033 23.6714 15.5836 23.697 15.5711C23.7011 15.5807 23.7017 15.5914 23.6986 15.6014C23.6956 15.6114 23.689 15.6202 23.6801 15.6262Z" fill="#929191"/>
<path d="M12.8305 6.40155L12.9053 6.39687C13.0307 6.4728 13.0586 6.465 13.0875 6.34486C13.2217 6.35579 13.3182 6.24085 13.4508 6.24605C13.4421 6.37243 13.573 6.37607 13.6199 6.35891C13.7988 6.29286 13.9232 6.41092 14.0476 6.47124C14.2658 6.57526 14.4322 6.75677 14.5931 6.9362C14.7417 7.11501 14.8726 7.30652 14.9842 7.50829C15.0593 7.62942 15.1265 7.75482 15.1855 7.88378C15.2755 8.08714 15.3519 8.29621 15.4365 8.50216C15.4813 8.61875 15.5178 8.73812 15.5456 8.85945C15.5848 9.01132 15.7021 9.14446 15.6749 9.31348C15.6716 9.33533 15.7032 9.36289 15.7196 9.38682C15.748 9.42338 15.7633 9.46769 15.7632 9.5132C15.7545 9.69418 15.8723 9.85437 15.8582 10.0369C15.8601 10.0658 15.8717 10.0934 15.8914 10.1154C15.9347 10.168 15.9543 10.2348 15.946 10.3011C15.9344 10.3716 15.9443 10.4438 15.9743 10.5091C16.0922 10.7213 16.0065 10.9731 16.1287 11.1853C16.1947 11.2997 16.0916 11.4266 16.1516 11.5493C16.2101 11.6491 16.2392 11.7622 16.2357 11.8764C16.2269 11.9888 16.2018 12.1089 16.2591 12.2171C16.3116 12.3251 16.3382 12.4429 16.3371 12.5619C16.342 12.7081 16.3022 12.8573 16.378 12.9998C16.4026 13.0456 16.3617 13.07 16.3126 13.0835C16.198 13.1137 16.0851 13.1496 15.9716 13.1834H15.8652C15.7611 13.2157 15.6263 13.1574 15.5521 13.2786H15.5003C15.4457 13.2453 15.3994 13.2266 15.3705 13.303H15.3186C15.2024 13.2614 15.0039 13.2989 14.9297 13.3764H14.826C14.6782 13.3072 14.5222 13.3613 14.3858 13.3878C13.919 13.4777 13.4398 13.4937 12.9675 13.4351C12.4579 13.3743 11.9468 13.3732 11.44 13.3181C11.1665 13.2868 10.8911 13.2741 10.6157 13.2801C10.4068 13.2853 10.1995 13.3202 9.99112 13.341C9.93984 13.3457 9.88802 13.3483 9.83674 13.3509C9.76419 13.354 9.738 13.3165 9.738 13.251C9.738 12.7656 9.738 12.2792 9.738 11.7917C9.74628 11.7431 9.76152 11.6959 9.78328 11.6512C9.82609 11.5218 9.84654 11.3865 9.84383 11.2508C9.83729 11.1499 9.8291 11.0464 9.89566 10.9533C9.92135 10.9052 9.92997 10.8504 9.92021 10.7973C9.9153 10.6933 9.91475 10.5892 9.99712 10.5071C10.0034 10.5011 10.0071 10.4931 10.0075 10.4847C9.98239 10.3068 10.0997 10.1607 10.1368 9.99635C10.1641 9.87673 10.1886 9.74671 10.2666 9.63229C10.3283 9.54388 10.3419 9.4305 10.3904 9.33065C10.5793 8.93449 10.801 8.55328 11.0532 8.19063C11.2412 7.93293 11.4457 7.68647 11.6653 7.45264C11.8903 7.21568 12.141 7.00212 12.4132 6.81554C12.5458 6.7119 12.6872 6.619 12.836 6.53781C12.9282 6.49153 12.8142 6.44732 12.8305 6.40155ZM13.6057 7.81305C13.6024 7.70904 13.4644 7.58214 13.357 7.5837C13.2495 7.58526 13.1175 7.71008 13.1218 7.79485C13.1278 7.89887 13.2729 8.05229 13.3619 8.05073C13.4622 8.04865 13.609 7.90615 13.6057 7.81305V7.81305Z" fill="#BD2F37"/>
<path d="M15.9688 13.1761C16.0822 13.1423 16.1951 13.1064 16.3097 13.0762C16.3588 13.0627 16.3997 13.0383 16.3752 12.9925C16.2993 12.85 16.3392 12.7007 16.3343 12.5546C16.3353 12.4356 16.3087 12.3178 16.2562 12.2098C16.199 12.1016 16.2241 11.9815 16.2328 11.8691C16.2363 11.7549 16.2073 11.6418 16.1488 11.542C16.0888 11.4219 16.1919 11.295 16.1259 11.1779C16.0037 10.9699 16.0893 10.7156 15.9715 10.5018C15.9414 10.4365 15.9316 10.3643 15.9431 10.2938C15.9514 10.2275 15.9318 10.1607 15.8886 10.1081C15.8689 10.0861 15.8572 10.0585 15.8553 10.0296C15.87 9.84706 15.7516 9.68687 15.7604 9.50588C15.7604 9.46038 15.7451 9.41606 15.7167 9.3795C15.7004 9.35558 15.6687 9.3275 15.672 9.30617C15.6993 9.13715 15.582 9.00401 15.5427 8.85214C15.5149 8.73081 15.4785 8.61144 15.4336 8.49485C15.349 8.28682 15.2727 8.07878 15.1827 7.87647C15.1237 7.74751 15.0564 7.62211 14.9814 7.50097C14.8697 7.2992 14.7388 7.10769 14.5902 6.92889C14.4309 6.74946 14.2662 6.56483 14.0447 6.46393C13.9203 6.40568 13.796 6.28555 13.617 6.3516C13.5701 6.36876 13.4392 6.36512 13.4479 6.23874L13.8112 6.21325C13.8805 6.32559 13.9973 6.27566 14.0955 6.28867C14.1031 6.39632 14.2171 6.39528 14.2787 6.44469C14.5337 6.64527 14.7526 6.88418 14.9268 7.152C15.0359 7.31582 15.1603 7.47705 15.2269 7.65648C15.2934 7.83591 15.3905 7.98673 15.4451 8.1672C15.4903 8.32582 15.5973 8.46884 15.6087 8.64255C15.6117 8.67138 15.625 8.69836 15.6464 8.719C15.6714 8.74185 15.6901 8.77021 15.701 8.80159C15.7118 8.83296 15.7144 8.86639 15.7085 8.89895C15.7098 8.93546 15.7203 8.97113 15.7391 9.00297C15.81 9.16553 15.8604 9.33559 15.8891 9.50953C15.9169 9.68531 16.0293 9.84394 16.0075 10.0296C16.0088 10.0419 16.0144 10.0534 16.0233 10.0624C16.0779 10.1269 16.0779 10.2044 16.0844 10.2818C16.098 10.4956 16.2115 10.6948 16.1859 10.9143C16.1859 10.9215 16.1924 10.9293 16.1962 10.9366C16.3315 11.1967 16.2355 11.5087 16.3823 11.7688C16.3823 11.7719 16.3823 11.7771 16.3823 11.7812C16.3823 11.9451 16.3795 12.1068 16.4308 12.2686C16.5006 12.4865 16.4357 12.7184 16.4854 12.9415C16.5028 13.0247 16.5099 13.0866 16.6179 13.0274H16.7216C16.7139 13.1033 16.655 13.0965 16.5983 13.1012C16.4554 13.1132 16.3097 13.1121 16.1766 13.1751H16.1253C16.1148 13.1735 16.104 13.175 16.0943 13.1792C16.0846 13.1835 16.0764 13.1903 16.0708 13.199C16.0353 13.1959 15.9955 13.2104 15.9688 13.1761Z" fill="#C93A44"/>
<path d="M14.0982 6.2975C14 6.2845 13.8833 6.33442 13.814 6.22209C13.814 6.21636 13.814 6.21116 13.814 6.20596C13.9689 6.228 14.1265 6.22501 14.2804 6.19712C14.2777 6.3235 14.1538 6.25485 14.0982 6.2975Z" fill="#BC2933"/>
<path d="M13.0873 6.34643C13.0584 6.46501 13.0328 6.47281 12.9051 6.39844C12.9057 6.39153 12.9078 6.38481 12.9111 6.37867L12.9842 6.34695L13.0873 6.34643Z" fill="#C93A44"/>
<path d="M13.6716 6.04577L13.6328 6.03017L13.6716 6.04577Z" fill="#B32F38"/>
<path d="M16.175 13.1745C16.3081 13.1116 16.4538 13.1127 16.5967 13.1007C16.6513 13.096 16.7124 13.1007 16.72 13.0268L16.8749 13.0237H16.9295C16.9666 13.0237 17.0042 13.0237 17.0075 12.9754H17.085C17.092 12.9765 17.0992 12.9761 17.1061 12.9741C17.113 12.9722 17.1193 12.9688 17.1245 12.9642C17.1298 12.9595 17.1339 12.9538 17.1365 12.9475C17.1391 12.9411 17.1401 12.9343 17.1395 12.9275H17.2432C17.3113 12.9728 17.3473 12.9384 17.373 12.8797H17.4248C17.4297 12.8911 17.437 12.9015 17.4464 12.91C17.4559 12.9185 17.4671 12.925 17.4794 12.9291C17.2672 13.212 17.1848 13.5532 17.0091 13.8543C16.666 14.4409 16.2629 14.9901 15.8608 15.5404C15.5198 16.006 15.1431 16.4468 14.7338 16.8593C14.3437 17.2535 13.85 17.4969 13.3089 17.6556C12.9996 17.746 12.6783 17.7861 12.3679 17.8714C12.3346 17.8194 12.2806 17.8267 12.2288 17.8267C11.9435 17.8267 11.6582 17.8267 11.3728 17.8267C11.3341 17.8267 11.2708 17.8433 11.2725 17.7856C11.2725 17.7403 11.3347 17.7539 11.3712 17.7539C11.4629 17.7503 11.5503 17.7155 11.6172 17.6556C11.7063 17.5801 11.8183 17.5337 11.9369 17.5229C12.2015 17.4938 12.4524 17.4002 12.6952 17.2972C12.9736 17.1857 13.2387 17.0462 13.4862 16.8812C13.8102 16.6586 14.0802 16.3721 14.2777 16.0412C14.5068 15.6569 14.737 15.2725 14.9907 14.9012C15.2444 14.5299 15.497 14.1492 15.7861 13.7966C15.9132 13.6405 16.0212 13.472 16.1739 13.3373C16.2361 13.2817 16.2481 13.2297 16.175 13.1745Z" fill="#D33544"/>
<path d="M17.4744 12.9275C17.4622 12.9235 17.4509 12.917 17.4415 12.9085C17.4321 12.8999 17.4247 12.8896 17.4199 12.8781C17.4199 12.8615 17.4199 12.8448 17.4199 12.8261C17.4744 12.8074 17.5394 12.7569 17.547 12.8672L17.4744 12.9275Z" fill="#C93A44"/>
<path d="M9.76896 17.4184C9.83061 17.3997 9.89825 17.4106 9.91025 17.3378C9.91377 17.3305 9.91918 17.3243 9.92597 17.3197C9.93275 17.315 9.94068 17.3121 9.94898 17.3112C10.0706 17.3419 10.2086 17.2972 10.3188 17.3835C10.357 17.4137 10.3892 17.447 10.3734 17.4974C10.3576 17.5479 10.3063 17.5453 10.2594 17.5546C10.1214 17.5812 10.0275 17.46 9.89498 17.4631C9.8717 17.4669 9.84778 17.4648 9.82564 17.457C9.8035 17.4491 9.78395 17.4358 9.76896 17.4184V17.4184Z" fill="#D33544"/>
<path d="M11.0182 17.5057C11.0728 17.5057 11.13 17.5021 11.1851 17.5057C11.2026 17.5075 11.219 17.5143 11.2323 17.5251C11.2457 17.536 11.2553 17.5504 11.2599 17.5665C11.2697 17.6004 11.2397 17.6186 11.2108 17.6284C11.1017 17.6617 10.974 17.644 10.8731 17.721C10.8567 17.7335 10.7547 17.7366 10.7744 17.6976C10.806 17.6336 10.6936 17.5026 10.8638 17.5026H11.0182V17.5057Z" fill="#D33544"/>
<path d="M8.33812 16.6903C8.48868 16.6705 8.56833 16.7729 8.67634 16.8073C8.71234 16.8182 8.70471 16.8624 8.67907 16.8915C8.65343 16.9206 8.61142 16.9477 8.56996 16.918C8.49679 16.8622 8.4067 16.8303 8.31303 16.827C8.27102 16.827 8.21647 16.7813 8.22411 16.7365C8.23447 16.6606 8.3103 16.6965 8.33812 16.6903Z" fill="#D33544"/>
<path d="M7.59454 16.6694C7.5356 16.6603 7.47744 16.6471 7.42052 16.6299C7.40777 16.6266 7.39591 16.6208 7.38575 16.6127C7.3756 16.6046 7.36739 16.5946 7.36169 16.5832C7.35599 16.5719 7.35294 16.5595 7.35273 16.5469C7.35253 16.5343 7.35518 16.5218 7.36051 16.5103C7.3867 16.4494 7.42434 16.4879 7.46471 16.5025C7.54708 16.5332 7.63491 16.5113 7.72056 16.516C7.76692 16.5186 7.8122 16.5238 7.81438 16.5779C7.81657 16.632 7.77674 16.6367 7.73474 16.6413C7.69273 16.646 7.64582 16.6736 7.59454 16.6694Z" fill="#D33544"/>
<path d="M14.9323 13.3716C15.0065 13.2941 15.2051 13.2567 15.3213 13.2983C15.3159 13.3065 15.3083 13.3131 15.2993 13.3174C15.2902 13.3218 15.2801 13.3236 15.27 13.3227C15.2057 13.3254 15.1431 13.3433 15.0878 13.3747L14.9323 13.3716Z" fill="#C93A44"/>
<path d="M15.5521 13.2718C15.6263 13.1506 15.7611 13.2089 15.8652 13.1766C15.8657 13.1861 15.8634 13.1956 15.8586 13.2039C15.8537 13.2123 15.8466 13.2192 15.838 13.2239C15.7801 13.2489 15.7092 13.2317 15.6558 13.2733L15.5521 13.2978V13.2718Z" fill="#C93A44"/>
<path d="M15.0851 13.3721C15.1404 13.3407 15.203 13.3228 15.2673 13.3201C15.2597 13.3357 15.2488 13.3495 15.2352 13.3607C15.2216 13.3719 15.2057 13.3803 15.1885 13.3852C15.1712 13.3901 15.1531 13.3915 15.1353 13.3892C15.1175 13.387 15.1004 13.3812 15.0851 13.3721V13.3721Z" fill="#D33544"/>
<path d="M15.6556 13.2734C15.7101 13.2318 15.7799 13.249 15.8378 13.224C15.793 13.2926 15.7352 13.3192 15.6556 13.2734Z" fill="#D33544"/>
<path d="M15.3687 13.2972C15.3976 13.2213 15.4467 13.2395 15.4985 13.2728V13.2983C15.457 13.2915 15.4134 13.3513 15.3687 13.2972Z" fill="#C93A44"/>
<path d="M16.0708 13.199C16.0764 13.1903 16.0846 13.1834 16.0943 13.1792C16.104 13.1749 16.1148 13.1735 16.1253 13.175C16.1177 13.2057 16.1117 13.2369 16.0708 13.199Z" fill="#D33544"/>
<path d="M15.5002 13.2983V13.2728H15.552V13.2988C15.5351 13.3227 15.5176 13.3233 15.5002 13.2983Z" fill="#D33544"/>
<path d="M9.37672 8.34811C9.64422 8.02276 9.95611 7.73294 10.3041 7.48633C10.4702 7.37097 10.6435 7.2652 10.8229 7.1696C10.9494 7.10043 11.0956 7.07599 11.2047 6.9985C11.3804 6.87472 11.6117 6.88564 11.7797 6.7525C11.8065 6.73118 11.8626 6.74054 11.9057 6.74054C11.9674 6.74054 12.0279 6.7447 12.0601 6.67761C12.0667 6.66461 12.0863 6.64796 12.0988 6.64848C12.2267 6.65264 12.3535 6.62466 12.4665 6.56735C12.4622 6.61936 12.4229 6.64328 12.382 6.67137C12.0683 6.87108 11.8152 7.13268 11.5555 7.39012C11.3502 7.599 11.1576 7.81901 10.9789 8.04906C10.7727 8.3091 10.615 8.5967 10.4536 8.88119C10.3548 9.05594 10.2801 9.24056 10.1901 9.41843C10.1421 9.51309 10.111 9.62646 10.0706 9.73048C10.0112 9.88078 9.99697 10.0451 9.90696 10.185C9.89769 10.1991 9.88296 10.2147 9.8846 10.2287C9.89878 10.3962 9.77877 10.5408 9.79186 10.7067C9.79838 10.7561 9.78986 10.8063 9.76731 10.8513C9.68439 10.999 9.67676 11.1586 9.68985 11.3193C9.69694 11.4088 9.6593 11.4852 9.63857 11.5679C9.59384 11.7479 9.6102 11.932 9.60802 12.1161C9.60475 12.4573 9.63039 12.7995 9.59438 13.1401C9.59665 13.1727 9.60158 13.205 9.60911 13.2369C9.61341 13.2521 9.61403 13.268 9.61093 13.2835C9.60784 13.2989 9.60109 13.3135 9.59122 13.3261C9.58134 13.3388 9.56859 13.3491 9.55393 13.3563C9.53926 13.3636 9.52306 13.3675 9.50655 13.3679C9.37017 13.3856 9.24143 13.4324 9.10396 13.4517C8.98722 13.4683 8.87757 13.539 8.76793 13.5921C8.72602 13.6213 8.67666 13.6392 8.625 13.6441C8.61354 13.5447 8.64846 13.4418 8.59772 13.3456C8.58572 13.1068 8.625 12.866 8.57318 12.6284C8.595 12.6252 8.61954 12.6169 8.62009 12.594C8.62009 12.4469 8.62391 12.2992 8.62009 12.152C8.62009 12.0922 8.5699 12.0833 8.51862 12.0849C8.50992 12.0798 8.50291 12.0724 8.49837 12.0637C8.49384 12.0549 8.49197 12.0452 8.49299 12.0355C8.5819 11.8691 8.53935 11.6969 8.52081 11.5253C8.51317 11.4561 8.46189 11.4675 8.41607 11.4665C8.40734 11.4332 8.39861 11.3999 8.39043 11.3667C8.4548 11.3578 8.44062 11.3094 8.44062 11.271C8.44062 10.9308 8.44062 10.5907 8.44062 10.2506C8.44062 10.2116 8.45316 10.1637 8.38934 10.1554C8.38934 10.1278 8.38443 10.0987 8.41443 10.0805C8.46898 10.0847 8.51699 10.0805 8.5279 10.015C8.54208 9.92603 8.58245 9.83398 8.49244 9.75908L8.51808 9.73412C8.56881 9.73412 8.62173 9.72632 8.61845 9.66755C8.61518 9.60878 8.66591 9.54117 8.57099 9.51153C8.57483 9.49979 8.58138 9.48903 8.59016 9.48003C8.59894 9.47103 8.60973 9.46402 8.62173 9.45952C8.73519 9.43455 8.8252 9.23536 8.77774 9.11314C8.78296 9.10492 8.79046 9.09824 8.79941 9.09383C8.80837 9.08942 8.81843 9.08747 8.82848 9.08818C8.87212 9.08818 8.88739 9.05958 8.90867 9.02473C9.0085 8.86403 9.07778 8.6846 9.2207 8.5499C9.22561 8.54522 9.23652 8.54626 9.24525 8.54418C9.24853 8.69136 9.32272 8.76261 9.43073 8.70852C9.47972 8.68693 9.52288 8.65495 9.55692 8.61501C9.59095 8.57508 9.61496 8.52826 9.62711 8.47813C9.63051 8.45724 9.62853 8.43589 9.62136 8.41589C9.61419 8.3959 9.60203 8.37786 9.58594 8.36334C9.56984 8.34881 9.55028 8.33822 9.52895 8.33249C9.50762 8.32676 9.48514 8.32605 9.46346 8.33042L9.37672 8.34811Z" fill="#BD2F37"/>
<path d="M8.39101 10.1565C8.45483 10.1648 8.44174 10.2127 8.44229 10.2517C8.44229 10.5918 8.44229 10.9319 8.44229 11.2721C8.44229 11.3105 8.45647 11.3589 8.3921 11.3678C8.33318 11.257 8.3621 11.1342 8.35119 11.0193C8.31996 10.7314 8.33338 10.4407 8.39101 10.1565Z" fill="#BC2933"/>
<path d="M8.41711 11.4687C8.46293 11.4687 8.51421 11.4583 8.52185 11.5274C8.54039 11.6991 8.58294 11.8712 8.49402 12.0376C8.44929 11.9482 8.45857 11.8499 8.44656 11.7563C8.44194 11.66 8.43211 11.564 8.41711 11.4687V11.4687Z" fill="#BC2933"/>
<path d="M8.51968 12.086C8.57096 12.086 8.62006 12.0933 8.62115 12.1531C8.62388 12.3003 8.62115 12.448 8.62115 12.5952C8.62115 12.6181 8.59606 12.6264 8.57424 12.6295C8.54434 12.4496 8.52612 12.2681 8.51968 12.086V12.086Z" fill="#BC2933"/>
<path d="M8.49512 9.76014C8.58622 9.83503 8.54476 9.92709 8.53057 10.016C8.51966 10.0816 8.47111 10.0857 8.41711 10.0816C8.46566 9.97962 8.4122 9.85636 8.49512 9.76014Z" fill="#BC2933"/>
<path d="M8.77943 9.11684C8.82689 9.23906 8.73688 9.43825 8.62341 9.46321C8.64995 9.33878 8.70306 9.22087 8.77943 9.11684V9.11684Z" fill="#BC2933"/>
<path d="M8.59776 13.3466C8.6485 13.4428 8.61358 13.5458 8.62504 13.6451C8.62122 13.6743 8.61358 13.7065 8.57703 13.706C8.54048 13.7055 8.54539 13.6732 8.54703 13.6503C8.55358 13.5489 8.52357 13.4392 8.59776 13.3466Z" fill="#BC2933"/>
<path d="M8.5726 9.51318C8.66752 9.5423 8.61679 9.6172 8.62006 9.6692C8.62333 9.72121 8.57042 9.73733 8.51968 9.73577C8.53714 9.6614 8.55514 9.58703 8.5726 9.51318Z" fill="#BC2933"/>
<path d="M9.37674 8.34817L9.46402 8.33205C9.4857 8.32767 9.50818 8.32838 9.52951 8.33412C9.55085 8.33985 9.5704 8.35043 9.5865 8.36496C9.60259 8.37949 9.61475 8.39752 9.62192 8.41752C9.62909 8.43751 9.63107 8.45887 9.62767 8.47975C9.61552 8.52988 9.59151 8.57671 9.55748 8.61664C9.52344 8.65657 9.48028 8.68855 9.43129 8.71015C9.32218 8.76215 9.24908 8.69298 9.24581 8.5458C9.27879 8.47403 9.32293 8.4074 9.37674 8.34817V8.34817Z" fill="#B32F38"/>
<path d="M14.0981 6.2975C14.1527 6.25485 14.2765 6.3235 14.2809 6.19712H14.3054C14.3518 6.18932 14.4145 6.22676 14.438 6.15187L14.564 6.14511C14.582 6.22728 14.6518 6.19712 14.7009 6.19712C15.2181 6.19712 15.7374 6.19712 16.2524 6.19712C16.2611 6.25485 16.3069 6.26577 16.356 6.26993C16.4823 6.28452 16.6021 6.33123 16.703 6.40515C16.8481 6.50293 17.0035 6.58718 17.1426 6.69484C17.1765 6.72084 17.2114 6.74372 17.213 6.79053C17.1777 6.80689 17.1471 6.83121 17.1238 6.86139C17.1006 6.89157 17.0854 6.9267 17.0796 6.96373C17.0738 7.00077 17.0775 7.03859 17.0905 7.07393C17.1035 7.10927 17.1253 7.14106 17.1541 7.16655C17.2037 7.21336 17.2594 7.25288 17.3363 7.22532C17.371 7.21424 17.4019 7.19426 17.4254 7.16756C17.449 7.14086 17.4644 7.10848 17.47 7.07397C17.4721 7.04558 17.4721 7.01707 17.47 6.98868C17.6271 7.02197 17.7067 7.15043 17.8044 7.24872C18.1783 7.63532 18.48 8.08019 18.6963 8.56401C18.9178 9.0482 18.9559 9.55528 18.9063 10.0785C18.8911 10.2532 18.8513 10.4251 18.7879 10.5897C18.7012 10.8032 18.5956 11.0092 18.4721 11.2055C18.3393 11.4321 18.1592 11.6303 17.9429 11.788C17.7711 11.9076 17.596 12.0257 17.4285 12.152C17.2878 12.2523 17.1559 12.3633 17.0341 12.4839C16.9157 12.6076 16.7755 12.7122 16.6473 12.8276C16.5846 12.8843 16.512 12.9446 16.6146 13.0284C16.5055 13.0877 16.4995 13.0284 16.482 12.9426C16.434 12.7194 16.4989 12.4875 16.4275 12.2696C16.3762 12.1078 16.38 11.9461 16.3789 11.7823C16.3789 11.7781 16.3789 11.7729 16.3789 11.7698C16.2322 11.5097 16.3282 11.2008 16.1929 10.9377C16.1891 10.9304 16.182 10.9226 16.1825 10.9153C16.2082 10.6958 16.0947 10.4966 16.0811 10.2829C16.0762 10.2054 16.0751 10.1268 16.02 10.0634C16.011 10.0545 16.0055 10.0429 16.0042 10.0306C16.026 9.84444 15.9136 9.68582 15.8858 9.51055C15.8571 9.33661 15.8067 9.16656 15.7358 9.00399C15.717 8.97216 15.7065 8.93648 15.7052 8.89998C15.7111 8.86742 15.7085 8.83399 15.6976 8.80261C15.6868 8.77124 15.668 8.74288 15.643 8.72003C15.6217 8.69939 15.6084 8.67241 15.6054 8.64358C15.5928 8.46987 15.4859 8.32685 15.4417 8.16822C15.3899 7.98776 15.289 7.83121 15.2235 7.65751C15.1581 7.4838 15.0326 7.31685 14.9235 7.15303C14.7493 6.88855 14.5314 6.65268 14.2781 6.45456C14.2198 6.40411 14.1058 6.40515 14.0981 6.2975Z" fill="#BD2F37"/>
<path d="M16.2524 6.1982C15.7352 6.1982 15.2159 6.1982 14.7009 6.1982C14.6518 6.1982 14.582 6.22837 14.564 6.14619C14.7353 6.10355 14.912 6.11915 15.0855 6.10875C15.4327 6.09462 15.7804 6.10053 16.1269 6.12643C16.1693 6.13154 16.2114 6.13918 16.2529 6.14931L16.2524 6.1982Z" fill="#BC2933"/>
<path d="M17.4722 6.98975C17.4744 7.01814 17.4744 7.04665 17.4722 7.07504C17.4667 7.10954 17.4513 7.14192 17.4277 7.16862C17.4041 7.19532 17.3733 7.21531 17.3385 7.22638C17.2616 7.25395 17.206 7.21442 17.1563 7.16762C17.1276 7.14213 17.1057 7.11034 17.0928 7.075C17.0798 7.03966 17.076 7.00183 17.0818 6.9648C17.0876 6.92777 17.1028 6.89264 17.1261 6.86246C17.1493 6.83228 17.1799 6.80796 17.2153 6.7916C17.3271 6.82488 17.3958 6.91122 17.4722 6.98975Z" fill="#B32F38"/>
<path d="M17.0827 12.9769H17.0053C16.9676 12.9769 16.9305 12.9769 16.9273 13.0252H16.8727C16.8984 12.9072 16.9938 12.9254 17.0811 12.9285L17.0827 12.9769Z" fill="#BD2F37"/>
<path d="M17.3686 12.8786C17.3429 12.9374 17.3069 12.9717 17.2388 12.9264C17.2725 12.8894 17.3178 12.8637 17.368 12.8531C17.368 12.8614 17.3686 12.8729 17.3686 12.8786Z" fill="#C93A44"/>
<path d="M17.0826 12.9769V12.9249H17.1345C17.1357 12.9317 17.1353 12.9388 17.1331 12.9455C17.131 12.9521 17.1273 12.9582 17.1223 12.9633C17.1172 12.9683 17.111 12.9722 17.1041 12.9745C17.0973 12.9769 17.0899 12.9777 17.0826 12.9769Z" fill="#C93A44"/>
<path d="M17.3687 12.8786C17.3687 12.8703 17.3687 12.8615 17.3687 12.8531C17.3742 12.8444 17.3824 12.8374 17.3921 12.8331C17.4018 12.8287 17.4126 12.8272 17.4232 12.8287C17.4232 12.8448 17.4232 12.8615 17.4232 12.8807L17.3687 12.8786Z" fill="#BD2F37"/>
<path d="M14.438 6.15136C14.4156 6.22625 14.3518 6.18881 14.3054 6.19661C14.3267 6.12016 14.39 6.1576 14.438 6.15136Z" fill="#C93A44"/>
<path d="M13.6057 7.81297C13.6089 7.90606 13.4622 8.04856 13.3618 8.05064C13.2729 8.05064 13.1278 7.89722 13.1218 7.79477C13.1174 7.70999 13.256 7.58673 13.3569 7.58361C13.4578 7.58049 13.6024 7.70895 13.6057 7.81297Z" fill="#B32F38"/>
<path d="M16.9273 13.0253C16.9305 12.9733 16.9676 12.9759 17.0053 12.9769C17.002 13.0289 16.9644 13.0258 16.9273 13.0253Z" fill="#C93A44"/>
</g>
<defs>
<clipPath id="clip0_2_593">
<rect width="26.6667" height="26.6667" fill="white" transform="translate(2.66666 2.66667)"/>
</clipPath>
</defs>
</svg>
