<svg width="24" height="20" viewBox="0 0 24 20" fill="none" xmlns="http://www.w3.org/2000/svg">
<g clip-path="url(#clip0_1916_1830)">
<path fill-rule="evenodd" clip-rule="evenodd" d="M9.6 0.400024H2.4C1.08 0.400024 0 1.48002 0 2.80002V17.2C0 18.52 1.08 19.6 2.4 19.6H21.6C22.92 19.6 24 18.52 24 17.2V5.20002C24 3.88002 22.92 2.80002 21.6 2.80002H12L9.6 0.400024Z" fill="#0093D8"/>
<path fill-rule="evenodd" clip-rule="evenodd" d="M14.2001 6.59998C14.0815 6.6 13.9655 6.6352 13.8668 6.70113C13.7682 6.76707 13.6913 6.86076 13.6459 6.97038C13.6005 7.08 13.5886 7.20062 13.6118 7.31699C13.6349 7.43337 13.692 7.54026 13.7759 7.62418L14.2001 8.04838V10.3032C14.2001 10.4623 14.1368 10.6149 14.0243 10.7274L11.6243 13.1274C10.4903 14.2614 11.2937 16.2 12.8969 16.2H19.1027C20.7065 16.2 21.5099 14.2614 20.3759 13.1274L17.9759 10.7274C17.8634 10.6149 17.8001 10.4623 17.8001 10.3032V8.04838L18.2243 7.62418C18.3082 7.54026 18.3653 7.43337 18.3885 7.31699C18.4116 7.20062 18.3997 7.08 18.3543 6.97038C18.3089 6.86076 18.232 6.76707 18.1334 6.70113C18.0347 6.6352 17.9188 6.6 17.8001 6.59998H14.2001ZM15.4001 10.3032V7.79998H16.6001V10.3032C16.6004 10.7803 16.7901 11.2378 17.1275 11.5752L17.7437 12.192C17.3122 12.0918 16.8613 12.1129 16.4411 12.2532L16.1591 12.3468C15.6664 12.511 15.1338 12.511 14.6411 12.3468L14.3033 12.2346C14.2807 12.2269 14.2579 12.2199 14.2349 12.2136L14.8727 11.5758C15.2103 11.2383 15.4 10.7805 15.4001 10.3032Z" fill="#D5F2FF"/>
</g>
<defs>
<clipPath id="clip0_1916_1830">
<rect width="24" height="19.2" fill="white" transform="translate(0 0.400024)"/>
</clipPath>
</defs>
</svg>
