<svg width="50" height="50" viewBox="0 0 50 50" fill="none" xmlns="http://www.w3.org/2000/svg">
<path fill-rule="evenodd" clip-rule="evenodd" d="M10 10C10 8.67392 10.5268 7.40215 11.4645 6.46447C12.4021 5.52678 13.6739 5 15 5H26.465C27.791 5.00028 29.0625 5.52725 30 6.465L38.535 15C39.4727 15.9375 39.9997 17.209 40 18.535V40C40 41.3261 39.4732 42.5979 38.5355 43.5355C37.5979 44.4732 36.3261 45 35 45H15C13.6739 45 12.4021 44.4732 11.4645 43.5355C10.5268 42.5979 10 41.3261 10 40V10Z" fill="#0093D8"/>
<path d="M15.3828 32.5L16.6953 34.8281H16.7578L18.0859 32.5H20.5078L18.1172 36.5L20.6016 40.5H18.1172L16.7578 38.125H16.6953L15.3359 40.5H12.8672L15.3203 36.5L12.9453 32.5H15.3828ZM21.4443 32.5H24.1475L26.0068 37.0313H26.1006L27.96 32.5H30.6631V40.5H28.5381V35.875H28.4756L26.6943 40.4375H25.4131L23.6318 35.8437H23.5693V40.5H21.4443V32.5ZM31.6924 40.5V32.5H33.8643V38.75H37.0986V40.5H31.6924Z" fill="white"/>
</svg>
